Montserrat-ThinItalic.ufo
<glyph name="ampersand" format="2">
  <advance width="634"/>
  <unicode hex="0026"/>
  <outline>
    <contour>
      <point x="223" y="-3" type="curve" smooth="yes"/>
      <point x="381" y="-3"/>
      <point x="505" y="88"/>
      <point x="582" y="286" type="curve"/>
      <point x="564" y="290" type="line"/>
      <point x="491" y="102"/>
      <point x="373" y="14"/>
      <point x="224" y="14" type="curve" smooth="yes"/>
      <point x="118" y="14"/>
      <point x="55" y="68"/>
      <point x="55" y="147" type="curve" smooth="yes"/>
      <point x="55" y="229"/>
      <point x="105" y="287"/>
      <point x="284" y="377" type="curve" smooth="yes"/>
      <point x="451" y="461"/>
      <point x="505" y="509"/>
      <point x="505" y="593" type="curve" smooth="yes"/>
      <point x="505" y="658"/>
      <point x="454" y="703"/>
      <point x="374" y="703" type="curve" smooth="yes"/>
      <point x="270" y="703"/>
      <point x="204" y="641"/>
      <point x="204" y="545" type="curve" smooth="yes"/>
      <point x="204" y="497"/>
      <point x="226" y="452"/>
      <point x="263" y="400" type="curve" smooth="yes"/>
      <point x="560" y="-10" type="line"/>
      <point x="575" y="1" type="line"/>
      <point x="280" y="408" type="line" smooth="yes"/>
      <point x="242" y="460"/>
      <point x="224" y="504"/>
      <point x="224" y="547" type="curve" smooth="yes"/>
      <point x="224" y="630"/>
      <point x="283" y="684"/>
      <point x="374" y="684" type="curve" smooth="yes"/>
      <point x="446" y="684"/>
      <point x="486" y="644"/>
      <point x="486" y="593" type="curve" smooth="yes"/>
      <point x="486" y="515"/>
      <point x="434" y="474"/>
      <point x="274" y="393" type="curve" smooth="yes"/>
      <point x="92" y="301"/>
      <point x="35" y="234"/>
      <point x="35" y="147" type="curve" smooth="yes"/>
      <point x="35" y="57"/>
      <point x="107" y="-3"/>
    </contour>
  </outline>
</glyph>
<glyph name="four" format="2">
  <advance width="644"/>
  <unicode hex="0034"/>
  <guideline x="598" y="239" angle="90"/>
  <outline>
    <contour>
      <point x="36" y="208" type="line"/>
      <point x="617" y="208" type="line"/>
      <point x="621" y="227" type="line"/>
      <point x="50" y="227" type="line"/>
      <point x="66" y="223" type="line"/>
      <point x="552" y="700" type="line"/>
      <point x="525" y="700" type="line"/>
      <point x="39" y="223" type="line"/>
    </contour>
    <contour>
      <point x="399" y="0" type="line"/>
      <point x="419" y="0" type="line"/>
      <point x="501" y="410" type="line"/>
      <point x="481" y="410" type="line"/>
      <point x="444" y="227" type="line"/>
      <point x="441" y="208" type="line"/>
    </contour>
  </outline>
</glyph>
<glyph name="less" format="2">
  <advance width="560"/>
  <unicode hex="003C"/>
  <outline>
    <contour>
      <point x="538" y="532" type="line"/>
      <point x="94" y="361" type="line"/>
      <point x="90" y="339" type="line"/>
      <point x="466" y="168" type="line"/>
      <point x="470" y="188" type="line"/>
      <point x="105" y="353" type="line"/>
      <point x="103" y="345" type="line"/>
      <point x="533" y="509" type="line"/>
    </contour>
  </outline>
</glyph>
<glyph name="G" format="2">
  <advance width="774"/>
  <unicode hex="0047"/>
  <anchor x="350" y="0" name="bottom"/>
  <anchor x="490" y="699" name="top"/>
  <outline>
    <contour>
      <point x="386" y="-3" type="curve" smooth="yes"/>
      <point x="483" y="-3"/>
      <point x="569" y="33"/>
      <point x="628" y="87" type="curve"/>
      <point x="618" y="102" type="line"/>
      <point x="556" y="48"/>
      <point x="483" y="16"/>
      <point x="388" y="16" type="curve" smooth="yes"/>
      <point x="192" y="16"/>
      <point x="91" y="123"/>
      <point x="91" y="280" type="curve" smooth="yes"/>
      <point x="91" y="499"/>
      <point x="246" y="684"/>
      <point x="490" y="684" type="curve" smooth="yes"/>
      <point x="593" y="684"/>
      <point x="670" y="656"/>
      <point x="718" y="601" type="curve"/>
      <point x="732" y="614" type="line"/>
      <point x="685" y="670"/>
      <point x="599" y="703"/>
      <point x="492" y="703" type="curve" smooth="yes"/>
      <point x="229" y="703"/>
      <point x="71" y="504"/>
      <point x="71" y="280" type="curve" smooth="yes"/>
      <point x="71" y="111"/>
      <point x="182" y="-3"/>
    </contour>
    <contour>
      <point x="609" y="87" type="line"/>
      <point x="628" y="87" type="line"/>
      <point x="679" y="343" type="line"/>
      <point x="660" y="343" type="line"/>
    </contour>
  </outline>
</glyph>
<glyph name="N" format="2">
  <advance width="816"/>
  <unicode hex="004E"/>
  <anchor x="356" y="0" name="bottom"/>
  <anchor x="496" y="700" name="top"/>
  <outline>
    <contour>
      <point x="81" y="0" type="line"/>
      <point x="101" y="0" type="line"/>
      <point x="236" y="675" type="line"/>
      <point x="228" y="678" type="line"/>
      <point x="614" y="0" type="line"/>
      <point x="631" y="0" type="line"/>
      <point x="771" y="700" type="line"/>
      <point x="751" y="700" type="line"/>
      <point x="616" y="25" type="line"/>
      <point x="624" y="22" type="line"/>
      <point x="238" y="700" type="line"/>
      <point x="221" y="700" type="line"/>
    </contour>
  </outline>
</glyph>
<glyph name="c" format="2">
  <advance width="545"/>
  <unicode hex="0063"/>
  <anchor x="284" y="-3" name="bottom"/>
  <anchor x="342" y="517" name="top"/>
  <outline>
    <contour>
      <point x="274" y="-3" type="curve" smooth="yes"/>
      <point x="354" y="-3"/>
      <point x="429" y="27"/>
      <point x="472" y="80" type="curve"/>
      <point x="460" y="94" type="line"/>
      <point x="419" y="45"/>
      <point x="351" y="16"/>
      <point x="277" y="16" type="curve" smooth="yes"/>
      <point x="144" y="16"/>
      <point x="69" y="86"/>
      <point x="69" y="208" type="curve" smooth="yes"/>
      <point x="69" y="376"/>
      <point x="183" y="501"/>
      <point x="341" y="501" type="curve" smooth="yes"/>
      <point x="420" y="501"/>
      <point x="477" y="475"/>
      <point x="512" y="421" type="curve"/>
      <point x="527" y="433" type="line"/>
      <point x="493" y="490"/>
      <point x="428" y="520"/>
      <point x="342" y="520" type="curve" smooth="yes"/>
      <point x="172" y="520"/>
      <point x="49" y="388"/>
      <point x="49" y="207" type="curve" smooth="yes"/>
      <point x="49" y="78"/>
      <point x="134" y="-3"/>
    </contour>
  </outline>
</glyph>
<glyph name="n" format="2">
  <advance width="668"/>
  <unicode hex="006E"/>
  <anchor x="283" y="0" name="bottom"/>
  <anchor x="386" y="517" name="top"/>
  <outline>
    <contour>
      <point x="393" y="520" type="curve" smooth="yes"/>
      <point x="284" y="520"/>
      <point x="195" y="472"/>
      <point x="146" y="362" type="curve"/>
      <point x="156" y="367" type="line"/>
      <point x="186" y="517" type="line"/>
      <point x="166" y="517" type="line"/>
      <point x="63" y="0" type="line"/>
      <point x="83" y="0" type="line"/>
      <point x="140" y="287" type="line" smooth="yes"/>
      <point x="168" y="427"/>
      <point x="260" y="501"/>
      <point x="391" y="501" type="curve" smooth="yes"/>
      <point x="519" y="501"/>
      <point x="572" y="426"/>
      <point x="548" y="305" type="curve" smooth="yes"/>
      <point x="487" y="0" type="line"/>
      <point x="507" y="0" type="line"/>
      <point x="568" y="305" type="line" smooth="yes"/>
      <point x="593" y="431"/>
      <point x="536" y="520"/>
    </contour>
  </outline>
</glyph>
<glyph name="p" format="2">
  <advance width="671"/>
  <unicode hex="0070"/>
  <anchor x="314" y="0" name="bottom"/>
  <anchor x="417" y="517" name="top"/>
  <outline>
    <contour>
      <point x="330" y="-3" type="curve" smooth="yes"/>
      <point x="500" y="-3"/>
      <point x="622" y="131"/>
      <point x="622" y="310" type="curve" smooth="yes"/>
      <point x="622" y="439"/>
      <point x="537" y="520"/>
      <point x="402" y="520" type="curve" smooth="yes"/>
      <point x="231" y="520"/>
      <point x="113" y="384"/>
      <point x="114" y="205" type="curve" smooth="yes"/>
      <point x="115" y="75"/>
      <point x="192" y="-3"/>
    </contour>
    <contour>
      <point x="24" y="-194" type="line"/>
      <point x="44" y="-194" type="line"/>
      <point x="121" y="190" type="line"/>
      <point x="124" y="267" type="line"/>
      <point x="150" y="337" type="line"/>
      <point x="186" y="517" type="line"/>
      <point x="166" y="517" type="line"/>
    </contour>
    <contour>
      <point x="333" y="16" type="curve" smooth="yes"/>
      <point x="205" y="16"/>
      <point x="130" y="86"/>
      <point x="130" y="208" type="curve" smooth="yes"/>
      <point x="130" y="377"/>
      <point x="244" y="501"/>
      <point x="399" y="501" type="curve" smooth="yes"/>
      <point x="527" y="501"/>
      <point x="602" y="431"/>
      <point x="602" y="309" type="curve" smooth="yes"/>
      <point x="602" y="141"/>
      <point x="488" y="16"/>
    </contour>
  </outline>
</glyph>
<glyph name="w" format="2">
  <advance width="835"/>
  <unicode hex="0077"/>
  <anchor x="376" y="0" name="bottom"/>
  <anchor x="470" y="517" name="top"/>
  <outline>
    <contour>
      <point x="166" y="0" type="line"/>
      <point x="184" y="0" type="line"/>
      <point x="470" y="498" type="line"/>
      <point x="462" y="498" type="line"/>
      <point x="568" y="0" type="line"/>
      <point x="586" y="0" type="line"/>
      <point x="880" y="517" type="line"/>
      <point x="858" y="517" type="line"/>
      <point x="575" y="14" type="line"/>
      <point x="583" y="14" type="line"/>
      <point x="477" y="517" type="line"/>
      <point x="460" y="517" type="line"/>
      <point x="173" y="14" type="line"/>
      <point x="180" y="14" type="line"/>
      <point x="78" y="517" type="line"/>
      <point x="59" y="517" type="line"/>
    </contour>
  </outline>
</glyph>
<glyph name="asciitilde" format="2">
  <advance width="560"/>
  <unicode hex="007E"/>
  <outline>
    <contour>
      <point x="390" y="286" type="curve" smooth="yes"/>
      <point x="455" y="286"/>
      <point x="502" y="333"/>
      <point x="521" y="411" type="curve"/>
      <point x="502" y="411" type="line"/>
      <point x="487" y="346"/>
      <point x="446" y="304"/>
      <point x="391" y="304" type="curve" smooth="yes"/>
      <point x="311" y="304"/>
      <point x="301" y="414"/>
      <point x="206" y="414" type="curve" smooth="yes"/>
      <point x="141" y="414"/>
      <point x="94" y="367"/>
      <point x="75" y="289" type="curve"/>
      <point x="94" y="289" type="line"/>
      <point x="109" y="354"/>
      <point x="150" y="396"/>
      <point x="205" y="396" type="curve" smooth="yes"/>
      <point x="285" y="396"/>
      <point x="295" y="286"/>
    </contour>
  </outline>
</glyph>
<glyph name="ordmasculine" format="2">
  <advance width="407"/>
  <unicode hex="00BA"/>
  <outline>
    <contour>
      <point x="247" y="432" type="curve" smooth="yes"/>
      <point x="356" y="432"/>
      <point x="434" y="511"/>
      <point x="434" y="612" type="curve" smooth="yes"/>
      <point x="434" y="692"/>
      <point x="377" y="744"/>
      <point x="292" y="744" type="curve" smooth="yes"/>
      <point x="182" y="744"/>
      <point x="104" y="665"/>
      <point x="104" y="564" type="curve" smooth="yes"/>
      <point x="104" y="484"/>
      <point x="161" y="432"/>
    </contour>
    <contour>
      <point x="249" y="450" type="curve" smooth="yes"/>
      <point x="174" y="450"/>
      <point x="123" y="495"/>
      <point x="123" y="564" type="curve" smooth="yes"/>
      <point x="123" y="653"/>
      <point x="192" y="726"/>
      <point x="290" y="726" type="curve" smooth="yes"/>
      <point x="364" y="726"/>
      <point x="415" y="681"/>
      <point x="415" y="612" type="curve" smooth="yes"/>
      <point x="415" y="523"/>
      <point x="346" y="450"/>
    </contour>
  </outline>
</glyph>
<glyph name="questiondown" format="2">
  <advance width="554"/>
  <unicode hex="00BF"/>
  <outline>
    <contour>
      <point x="226" y="-157" type="curve" smooth="yes"/>
      <point x="332" y="-157"/>
      <point x="411" y="-126"/>
      <point x="470" y="-68" type="curve"/>
      <point x="457" y="-53" type="line"/>
      <point x="400" y="-110"/>
      <point x="329" y="-138"/>
      <point x="226" y="-138" type="curve" smooth="yes"/>
      <point x="118" y="-138"/>
      <point x="57" y="-92"/>
      <point x="57" y="-12" type="curve" smooth="yes"/>
      <point x="57" y="164"/>
      <point x="287" y="157"/>
      <point x="318" y="329" type="curve"/>
      <point x="298" y="329" type="line"/>
      <point x="269" y="175"/>
      <point x="38" y="172"/>
      <point x="38" y="-12" type="curve" smooth="yes"/>
      <point x="38" y="-105"/>
      <point x="107" y="-157"/>
    </contour>
    <contour>
      <point x="341" y="468" type="curve" smooth="yes"/>
      <point x="355" y="468"/>
      <point x="367" y="480"/>
      <point x="367" y="494" type="curve" smooth="yes"/>
      <point x="367" y="508"/>
      <point x="355" y="520"/>
      <point x="341" y="520" type="curve" smooth="yes"/>
      <point x="327" y="520"/>
      <point x="315" y="508"/>
      <point x="315" y="494" type="curve" smooth="yes"/>
      <point x="315" y="480"/>
      <point x="327" y="468"/>
    </contour>
  </outline>
</glyph>
<glyph name="Thorn" format="2">
  <advance width="710"/>
  <unicode hex="00DE"/>
  <anchor x="303" y="0" name="bottom"/>
  <anchor x="443" y="700" name="top"/>
  <outline>
    <contour>
      <point x="120" y="139" type="line"/>
      <point x="353" y="139" type="line" smooth="yes"/>
      <point x="548" y="139"/>
      <point x="670" y="233"/>
      <point x="670" y="413" type="curve" smooth="yes"/>
      <point x="670" y="532"/>
      <point x="584" y="599"/>
      <point x="436" y="599" type="curve" smooth="yes"/>
      <point x="212" y="599" type="line"/>
      <point x="208" y="580" type="line"/>
      <point x="437" y="580" type="line" smooth="yes"/>
      <point x="574" y="580"/>
      <point x="650" y="520"/>
      <point x="650" y="413" type="curve" smooth="yes"/>
      <point x="650" y="244"/>
      <point x="541" y="158"/>
      <point x="352" y="158" type="curve" smooth="yes"/>
      <point x="124" y="158" type="line"/>
    </contour>
    <contour>
      <point x="81" y="0" type="line"/>
      <point x="101" y="0" type="line"/>
      <point x="241" y="700" type="line"/>
      <point x="221" y="700" type="line"/>
    </contour>
  </outline>
</glyph>
<glyph name="ae" format="2">
  <advance width="983"/>
  <unicode hex="00E6"/>
  <anchor x="506" y="517" name="top"/>
  <outline>
    <contour>
      <point x="206" y="-3" type="curve" smooth="yes"/>
      <point x="309" y="-3"/>
      <point x="414" y="53"/>
      <point x="449" y="187" type="curve"/>
      <point x="443" y="189" type="line"/>
      <point x="452" y="63"/>
      <point x="539" y="-3"/>
      <point x="671" y="-3" type="curve" smooth="yes"/>
      <point x="755" y="-3"/>
      <point x="828" y="30"/>
      <point x="872" y="80" type="curve"/>
      <point x="859" y="93" type="line"/>
      <point x="816" y="45"/>
      <point x="750" y="16"/>
      <point x="673" y="16" type="curve" smooth="yes"/>
      <point x="536" y="16"/>
      <point x="462" y="85"/>
      <point x="462" y="210" type="curve" smooth="yes"/>
      <point x="462" y="377"/>
      <point x="574" y="501"/>
      <point x="719" y="501" type="curve" smooth="yes"/>
      <point x="848" y="501"/>
      <point x="933" y="418"/>
      <point x="909" y="267" type="curve"/>
      <point x="919" y="280" type="line"/>
      <point x="465" y="280" type="line"/>
      <point x="461" y="261" type="line"/>
      <point x="926" y="261" type="line"/>
      <point x="929" y="274"/>
      <point x="932" y="292"/>
      <point x="932" y="310" type="curve" smooth="yes"/>
      <point x="932" y="441"/>
      <point x="852" y="520"/>
      <point x="720" y="520" type="curve" smooth="yes"/>
      <point x="616" y="520"/>
      <point x="524" y="461"/>
      <point x="475" y="359" type="curve"/>
      <point x="481" y="350" type="line"/>
      <point x="497" y="454"/>
      <point x="446" y="520"/>
      <point x="323" y="520" type="curve" smooth="yes"/>
      <point x="247" y="520"/>
      <point x="168" y="491"/>
      <point x="116" y="444" type="curve"/>
      <point x="128" y="430" type="line"/>
      <point x="176" y="472"/>
      <point x="248" y="501"/>
      <point x="322" y="501" type="curve" smooth="yes"/>
      <point x="436" y="501"/>
      <point x="482" y="443"/>
      <point x="459" y="331" type="curve" smooth="yes"/>
      <point x="433" y="202" type="line" smooth="yes"/>
      <point x="409" y="82"/>
      <point x="315" y="16"/>
      <point x="208" y="16" type="curve" smooth="yes"/>
      <point x="112" y="16"/>
      <point x="60" y="54"/>
      <point x="60" y="123" type="curve" smooth="yes"/>
      <point x="60" y="209"/>
      <point x="130" y="261"/>
      <point x="252" y="261" type="curve" smooth="yes"/>
      <point x="451" y="261" type="line"/>
      <point x="455" y="280" type="line"/>
      <point x="252" y="280" type="line" smooth="yes"/>
      <point x="120" y="280"/>
      <point x="40" y="221"/>
      <point x="40" y="122" type="curve" smooth="yes"/>
      <point x="40" y="44"/>
      <point x="102" y="-3"/>
    </contour>
  </outline>
</glyph>
<glyph name="Ohorn" format="2">
  <advance width="836"/>
  <unicode hex="01A0"/>
  <anchor x="366" y="0" name="bottom"/>
  <anchor x="506" y="700" name="top"/>
  <outline>
    <contour>
      <point x="386" y="-3" type="curve" smooth="yes"/>
      <point x="644" y="-3"/>
      <point x="802" y="196"/>
      <point x="802" y="420" type="curve" smooth="yes"/>
      <point x="802" y="540"/>
      <point x="746" y="632"/>
      <point x="640" y="675" type="curve"/>
      <point x="637" y="674" type="line"/>
      <point x="661" y="671"/>
      <point x="685" y="669"/>
      <point x="721" y="669" type="curve" smooth="yes"/>
      <point x="807" y="669"/>
      <point x="855" y="706"/>
      <point x="855" y="771" type="curve" smooth="yes"/>
      <point x="855" y="797"/>
      <point x="846" y="825"/>
      <point x="833" y="845" type="curve"/>
      <point x="815" y="837" type="line"/>
      <point x="826" y="818"/>
      <point x="835" y="796"/>
      <point x="835" y="770" type="curve" smooth="yes"/>
      <point x="835" y="719"/>
      <point x="795" y="688"/>
      <point x="722" y="688" type="curve" smooth="yes"/>
      <point x="646" y="688"/>
      <point x="592" y="703"/>
      <point x="487" y="703" type="curve" smooth="yes"/>
      <point x="229" y="703"/>
      <point x="71" y="504"/>
      <point x="71" y="280" type="curve" smooth="yes"/>
      <point x="71" y="111"/>
      <point x="182" y="-3"/>
    </contour>
    <contour>
      <point x="388" y="16" type="curve" smooth="yes"/>
      <point x="192" y="16"/>
      <point x="91" y="123"/>
      <point x="91" y="280" type="curve" smooth="yes"/>
      <point x="91" y="499"/>
      <point x="246" y="684"/>
      <point x="485" y="684" type="curve" smooth="yes"/>
      <point x="681" y="684"/>
      <point x="782" y="577"/>
      <point x="782" y="420" type="curve" smooth="yes"/>
      <point x="782" y="201"/>
      <point x="627" y="16"/>
    </contour>
  </outline>
</glyph>
<glyph name="schwa" format="2">
  <advance width="589"/>
  <unicode hex="0259"/>
  <outline>
    <contour>
      <point x="311" y="520" type="curve" smooth="yes"/>
      <point x="227" y="520"/>
      <point x="152" y="487"/>
      <point x="110" y="437" type="curve"/>
      <point x="122" y="424" type="line"/>
      <point x="164" y="472"/>
      <point x="232" y="501"/>
      <point x="310" y="501" type="curve" smooth="yes"/>
      <point x="446" y="501"/>
      <point x="520" y="432"/>
      <point x="520" y="307" type="curve" smooth="yes"/>
      <point x="520" y="140"/>
      <point x="410" y="16"/>
      <point x="263" y="16" type="curve" smooth="yes"/>
      <point x="136" y="16"/>
      <point x="51" y="99"/>
      <point x="74" y="250" type="curve"/>
      <point x="66" y="239" type="line"/>
      <point x="519" y="239" type="line"/>
      <point x="523" y="258" type="line"/>
      <point x="57" y="258" type="line"/>
      <point x="54" y="243"/>
      <point x="52" y="225"/>
      <point x="52" y="207" type="curve" smooth="yes"/>
      <point x="52" y="76"/>
      <point x="132" y="-3"/>
      <point x="263" y="-3" type="curve" smooth="yes"/>
      <point x="422" y="-3"/>
      <point x="539" y="131"/>
      <point x="539" y="307" type="curve" smooth="yes"/>
      <point x="539" y="443"/>
      <point x="454" y="520"/>
    </contour>
  </outline>
</glyph>
<glyph name="acutecomb" format="2">
  <unicode hex="0301"/>
  <anchor x="351" y="517" name="_top"/>
  <anchor x="380" y="660" name="top"/>
  <outline>
    <contour>
      <point x="323" y="607" type="line"/>
      <point x="355" y="607" type="line"/>
      <point x="517" y="717" type="line"/>
      <point x="475" y="717" type="line"/>
    </contour>
  </outline>
</glyph>
<glyph name="hungarumlautcomb" format="2">
  <unicode hex="030B"/>
  <anchor x="351" y="517" name="_top"/>
  <anchor x="380" y="660" name="top"/>
  <outline>
    <contour>
      <point x="424" y="607" type="line"/>
      <point x="453" y="607" type="line"/>
      <point x="583" y="717" type="line"/>
      <point x="547" y="717" type="line"/>
    </contour>
    <contour>
      <point x="285" y="607" type="line"/>
      <point x="314" y="607" type="line"/>
      <point x="444" y="717" type="line"/>
      <point x="408" y="717" type="line"/>
    </contour>
  </outline>
</glyph>
<glyph name="commaturnedabovecomb" format="2">
  <unicode hex="0312"/>
  <anchor x="351" y="517" name="_top"/>
  <anchor x="386" y="690" name="top"/>
  <outline>
    <contour>
      <point x="376" y="604" type="curve" smooth="yes"/>
      <point x="390" y="604"/>
      <point x="401" y="616"/>
      <point x="401" y="630" type="curve" smooth="yes"/>
      <point x="401" y="644"/>
      <point x="389" y="656"/>
      <point x="375" y="656" type="curve"/>
      <point x="376" y="645" type="line"/>
      <point x="425" y="759" type="line"/>
      <point x="407" y="759" type="line"/>
      <point x="358" y="659" type="line" smooth="yes"/>
      <point x="352" y="648"/>
      <point x="349" y="641"/>
      <point x="349" y="630" type="curve" smooth="yes"/>
      <point x="349" y="616"/>
      <point x="360" y="604"/>
    </contour>
  </outline>
</glyph>
<glyph name="cedillacomb" format="2">
  <unicode hex="0327"/>
  <anchor x="248" y="0" name="_bottom"/>
  <outline>
    <contour>
      <point x="199" y="-213" type="curve" smooth="yes"/>
      <point x="257" y="-213"/>
      <point x="298" y="-174"/>
      <point x="298" y="-124" type="curve" smooth="yes"/>
      <point x="298" y="-85"/>
      <point x="272" y="-60"/>
      <point x="229" y="-56" type="curve"/>
      <point x="258" y="5" type="line"/>
      <point x="239" y="5" type="line"/>
      <point x="201" y="-74" type="line"/>
      <point x="215" y="-74" type="line" smooth="yes"/>
      <point x="253" y="-74"/>
      <point x="277" y="-93"/>
      <point x="277" y="-124" type="curve" smooth="yes"/>
      <point x="277" y="-166"/>
      <point x="246" y="-194"/>
      <point x="200" y="-194" type="curve" smooth="yes"/>
      <point x="172" y="-194"/>
      <point x="151" y="-186"/>
      <point x="135" y="-171" type="curve"/>
      <point x="121" y="-186" type="line"/>
      <point x="141" y="-205"/>
      <point x="169" y="-213"/>
    </contour>
  </outline>
</glyph>
<glyph name="brevebelowcomb" format="2">
  <unicode hex="032E"/>
  <anchor x="248" y="0" name="_bottom"/>
  <anchor x="222" y="-128" name="bottom"/>
  <outline>
    <contour>
      <point x="218" y="-198" type="curve" smooth="yes"/>
      <point x="289" y="-198"/>
      <point x="352" y="-160"/>
      <point x="361" y="-90" type="curve"/>
      <point x="342" y="-90" type="line"/>
      <point x="334" y="-148"/>
      <point x="281" y="-179"/>
      <point x="219" y="-179" type="curve" smooth="yes"/>
      <point x="154" y="-179"/>
      <point x="113" y="-146"/>
      <point x="116" y="-90" type="curve"/>
      <point x="97" y="-90" type="line"/>
      <point x="93" y="-156"/>
      <point x="145" y="-198"/>
    </contour>
  </outline>
</glyph>
<glyph name="Be-cy" format="2">
  <advance width="720"/>
  <unicode hex="0411"/>
  <outline>
    <contour>
      <point x="85" y="0" type="line"/>
      <point x="344" y="0" type="line" smooth="yes"/>
      <point x="536" y="0"/>
      <point x="648" y="84"/>
      <point x="648" y="227" type="curve" smooth="yes"/>
      <point x="648" y="340"/>
      <point x="577" y="396"/>
      <point x="433" y="396" type="curve" smooth="yes"/>
      <point x="184" y="396" type="line"/>
      <point x="241" y="681" type="line"/>
      <point x="702" y="681" type="line"/>
      <point x="706" y="700" type="line"/>
      <point x="225" y="700" type="line"/>
    </contour>
    <contour>
      <point x="109" y="19" type="line"/>
      <point x="180" y="377" type="line"/>
      <point x="422" y="377" type="line" smooth="yes"/>
      <point x="565" y="377"/>
      <point x="628" y="331"/>
      <point x="628" y="227" type="curve" smooth="yes"/>
      <point x="628" y="95"/>
      <point x="526" y="19"/>
      <point x="351" y="19" type="curve" smooth="yes"/>
    </contour>
  </outline>
</glyph>
<glyph name="Ef-cy" format="2">
  <advance width="901"/>
  <unicode hex="0424"/>
  <outline>
    <contour>
      <point x="406" y="50" type="curve"/>
      <point x="411" y="50" type="line"/>
      <point x="684" y="50"/>
      <point x="863" y="188"/>
      <point x="863" y="400" type="curve" smooth="yes"/>
      <point x="863" y="557"/>
      <point x="737" y="650"/>
      <point x="527" y="650" type="curve"/>
      <point x="522" y="650" type="line"/>
      <point x="252" y="650"/>
      <point x="74" y="511"/>
      <point x="74" y="300" type="curve" smooth="yes"/>
      <point x="74" y="143"/>
      <point x="198" y="50"/>
    </contour>
    <contour>
      <point x="406" y="70" type="line"/>
      <point x="208" y="70"/>
      <point x="94" y="155"/>
      <point x="94" y="300" type="curve" smooth="yes"/>
      <point x="94" y="500"/>
      <point x="263" y="630"/>
      <point x="522" y="630" type="curve"/>
      <point x="527" y="630" type="line"/>
      <point x="727" y="630"/>
      <point x="843" y="545"/>
      <point x="843" y="400" type="curve" smooth="yes"/>
      <point x="843" y="200"/>
      <point x="674" y="70"/>
      <point x="411" y="70" type="curve"/>
    </contour>
    <contour>
      <point x="385" y="-20" type="line"/>
      <point x="405" y="-20" type="line"/>
      <point x="553" y="720" type="line"/>
      <point x="533" y="720" type="line"/>
    </contour>
  </outline>
</glyph>
<glyph name="Sha-cy" format="2">
  <advance width="1092"/>
  <unicode hex="0428"/>
  <anchor x="883" y="0" name="bottomleft"/>
  <outline>
    <contour>
      <point x="495" y="19" type="line"/>
      <point x="100" y="19" type="line"/>
      <point x="108" y="10" type="line"/>
      <point x="245" y="700" type="line"/>
      <point x="225" y="700" type="line"/>
      <point x="85" y="0" type="line"/>
      <point x="903" y="0" type="line"/>
      <point x="1043" y="700" type="line"/>
      <point x="1023" y="700" type="line"/>
      <point x="886" y="10" type="line"/>
      <point x="896" y="19" type="line"/>
      <point x="499" y="19" type="line"/>
      <point x="507" y="10" type="line"/>
      <point x="644" y="700" type="line"/>
      <point x="624" y="700" type="line"/>
      <point x="487" y="10" type="line"/>
    </contour>
  </outline>
</glyph>
<glyph name="Hardsign-cy" format="2">
  <advance width="807"/>
  <unicode hex="042A"/>
  <outline>
    <contour>
      <point x="538" y="436" type="curve" smooth="yes"/>
      <point x="293" y="436" type="line"/>
      <point x="346" y="700" type="line"/>
      <point x="96" y="700" type="line"/>
      <point x="92" y="681" type="line"/>
      <point x="322" y="681" type="line"/>
      <point x="186" y="0" type="line"/>
      <point x="440" y="0" type="line" smooth="yes"/>
      <point x="642" y="0"/>
      <point x="750" y="100"/>
      <point x="750" y="267" type="curve" smooth="yes"/>
      <point x="750" y="377"/>
      <point x="678" y="436"/>
    </contour>
    <contour>
      <point x="448" y="19" type="curve" smooth="yes"/>
      <point x="210" y="19" type="line"/>
      <point x="289" y="417" type="line"/>
      <point x="527" y="417" type="line" smooth="yes"/>
      <point x="662" y="417"/>
      <point x="730" y="365"/>
      <point x="730" y="263" type="curve" smooth="yes"/>
      <point x="730" y="109"/>
      <point x="634" y="19"/>
    </contour>
  </outline>
</glyph>
<glyph name="de-cy" format="2">
  <advance width="622"/>
  <unicode hex="0434"/>
  <outline>
    <contour>
      <point x="422" y="10" type="line"/>
      <point x="442" y="10" type="line"/>
      <point x="544" y="517" type="line"/>
      <point x="206" y="517" type="line"/>
      <point x="164" y="350" type="line" smooth="yes"/>
      <point x="123" y="184"/>
      <point x="74" y="12"/>
      <point x="-14" y="18" type="curve"/>
      <point x="7" y="10" type="line"/>
      <point x="94" y="14"/>
      <point x="145" y="190"/>
      <point x="184" y="348" type="curve" smooth="yes"/>
      <point x="221" y="498" type="line"/>
      <point x="520" y="498" type="line"/>
    </contour>
    <contour>
      <point x="-67" y="-134" type="line"/>
      <point x="-47" y="-134" type="line"/>
      <point x="-21" y="0" type="line"/>
      <point x="506" y="0" type="line"/>
      <point x="480" y="-134" type="line"/>
      <point x="500" y="-134" type="line"/>
      <point x="530" y="18" type="line"/>
      <point x="-37" y="18" type="line"/>
    </contour>
  </outline>
</glyph>
<glyph name="yeru-cy" format="2">
  <advance width="739"/>
  <unicode hex="044B"/>
  <anchor x="422" y="517" name="top"/>
  <outline>
    <contour>
      <point x="551" y="0" type="line"/>
      <point x="571" y="0" type="line"/>
      <point x="675" y="517" type="line"/>
      <point x="655" y="517" type="line"/>
    </contour>
    <contour>
      <point x="310" y="322" type="curve" smooth="yes"/>
      <point x="149" y="322" type="line"/>
      <point x="188" y="517" type="line"/>
      <point x="168" y="517" type="line"/>
      <point x="64" y="0" type="line"/>
      <point x="249" y="0" type="line" smooth="yes"/>
      <point x="389" y="0"/>
      <point x="480" y="75"/>
      <point x="480" y="189" type="curve" smooth="yes"/>
      <point x="480" y="278"/>
      <point x="424" y="322"/>
    </contour>
    <contour>
      <point x="249" y="18" type="curve" smooth="yes"/>
      <point x="88" y="18" type="line"/>
      <point x="145" y="304" type="line"/>
      <point x="305" y="304" type="line" smooth="yes"/>
      <point x="411" y="304"/>
      <point x="461" y="267"/>
      <point x="461" y="189" type="curve" smooth="yes"/>
      <point x="461" y="86"/>
      <point x="376" y="18"/>
    </contour>
  </outline>
</glyph>
<glyph name="ghemiddlehook-cy" format="2">
  <advance width="577"/>
  <unicode hex="0495"/>
  <outline>
    <contour>
      <point x="66" y="0" type="line"/>
      <point x="86" y="0" type="line"/>
      <point x="187" y="506" type="line"/>
      <point x="178" y="498" type="line"/>
      <point x="496" y="498" type="line"/>
      <point x="499" y="517" type="line"/>
      <point x="169" y="517" type="line"/>
    </contour>
    <contour>
      <point x="159" y="-193" type="line"/>
      <point x="343" y="-227"/>
      <point x="501" y="-100"/>
      <point x="501" y="83" type="curve" smooth="yes"/>
      <point x="501" y="277"/>
      <point x="315" y="333"/>
      <point x="109" y="200" type="curve"/>
      <point x="119" y="184" type="line"/>
      <point x="312" y="307"/>
      <point x="481" y="260"/>
      <point x="481" y="83" type="curve" smooth="yes"/>
      <point x="481" y="-87"/>
      <point x="334" y="-205"/>
      <point x="163" y="-173" type="curve"/>
    </contour>
  </outline>
</glyph>
<glyph name="Kaverticalstroke-cy" format="2">
  <advance width="702"/>
  <unicode hex="049C"/>
  <outline>
    <contour>
      <point x="596" y="0" type="line"/>
      <point x="620" y="0" type="line"/>
      <point x="405" y="365" type="line"/>
      <point x="386" y="357" type="line"/>
    </contour>
    <contour>
      <point x="85" y="0" type="line"/>
      <point x="105" y="0" type="line"/>
      <point x="245" y="700" type="line"/>
      <point x="225" y="700" type="line"/>
    </contour>
    <contour>
      <point x="167" y="347" type="line"/>
      <point x="406" y="347" type="line"/>
      <point x="409" y="366" type="line"/>
      <point x="170" y="366" type="line"/>
    </contour>
    <contour>
      <point x="259" y="176" type="line"/>
      <point x="279" y="176" type="line"/>
      <point x="351" y="539" type="line"/>
      <point x="331" y="539" type="line"/>
    </contour>
    <contour>
      <point x="402" y="349" type="line"/>
      <point x="740" y="700" type="line"/>
      <point x="714" y="700" type="line"/>
      <point x="386" y="357" type="line"/>
    </contour>
  </outline>
</glyph>
<glyph name="kastroke-cy" format="2">
  <advance width="548"/>
  <unicode hex="049F"/>
  <anchor x="255" y="0" name="bottom"/>
  <anchor x="358" y="517" name="top"/>
  <outline>
    <contour>
      <point x="75" y="621" type="line"/>
      <point x="379" y="621" type="line"/>
      <point x="383" y="640" type="line"/>
      <point x="79" y="640" type="line"/>
    </contour>
    <contour>
      <point x="454" y="0" type="line"/>
      <point x="476" y="0" type="line"/>
      <point x="286" y="271" type="line"/>
      <point x="269" y="263" type="line"/>
    </contour>
    <contour>
      <point x="66" y="0" type="line"/>
      <point x="86" y="0" type="line"/>
      <point x="234" y="742" type="line"/>
      <point x="214" y="742" type="line"/>
    </contour>
    <contour>
      <point x="129" y="254" type="line"/>
      <point x="287" y="254" type="line"/>
      <point x="291" y="272" type="line"/>
      <point x="133" y="272" type="line"/>
    </contour>
    <contour>
      <point x="286" y="257" type="line"/>
      <point x="565" y="517" type="line"/>
      <point x="539" y="517" type="line"/>
      <point x="266" y="263" type="line"/>
    </contour>
  </outline>
</glyph>
<glyph name="kabashkir-cy" format="2">
  <advance width="596"/>
  <unicode hex="04A1"/>
  <anchor x="303" y="0" name="bottom"/>
  <anchor x="407" y="517" name="top"/>
  <outline>
    <contour>
      <point x="44" y="498" type="line"/>
      <point x="234" y="498" type="line"/>
      <point x="238" y="517" type="line"/>
      <point x="48" y="517" type="line"/>
    </contour>
    <contour>
      <point x="502" y="0" type="line"/>
      <point x="524" y="0" type="line"/>
      <point x="334" y="271" type="line"/>
      <point x="317" y="263" type="line"/>
    </contour>
    <contour>
      <point x="114" y="0" type="line"/>
      <point x="134" y="0" type="line"/>
      <point x="238" y="517" type="line"/>
      <point x="218" y="517" type="line"/>
    </contour>
    <contour>
      <point x="178" y="254" type="line"/>
      <point x="335" y="254" type="line"/>
      <point x="339" y="272" type="line"/>
      <point x="182" y="272" type="line"/>
    </contour>
    <contour>
      <point x="334" y="257" type="line"/>
      <point x="613" y="517" type="line"/>
      <point x="587" y="517" type="line"/>
      <point x="314" y="263" type="line"/>
    </contour>
  </outline>
</glyph>
<glyph name="Ustrait-cy" format="2">
  <advance width="620"/>
  <unicode hex="04AE"/>
  <anchor x="258" y="0" name="bottom"/>
  <anchor x="306" y="241" name="center"/>
  <anchor x="398" y="700" name="top"/>
  <anchor x="113" y="700" name="topleft"/>
  <outline>
    <contour>
      <point x="248" y="0" type="line"/>
      <point x="268" y="0" type="line"/>
      <point x="317" y="245" type="line"/>
      <point x="309" y="228" type="line"/>
      <point x="693" y="700" type="line"/>
      <point x="668" y="700" type="line"/>
      <point x="304" y="252" type="line"/>
      <point x="311" y="253" type="line"/>
      <point x="125" y="700" type="line"/>
      <point x="103" y="700" type="line"/>
      <point x="299" y="230" type="line"/>
      <point x="297" y="245" type="line"/>
    </contour>
  </outline>
</glyph>
<glyph name="Palochka-cy" format="2">
  <advance width="294"/>
  <unicode hex="04C0"/>
  <anchor x="95" y="0" name="bottom"/>
  <anchor x="105" y="0" name="ogonek"/>
  <anchor x="235" y="700" name="top"/>
  <anchor x="133" y="699" name="topleft"/>
  <outline>
    <contour>
      <point x="85" y="0" type="line"/>
      <point x="105" y="0" type="line"/>
      <point x="245" y="700" type="line"/>
      <point x="225" y="700" type="line"/>
    </contour>
  </outline>
</glyph>
<glyph name="hahook-cy" format="2">
  <advance width="493"/>
  <unicode hex="04FD"/>
  <outline>
    <contour>
      <point x="-24" y="0" type="line"/>
      <point x="3" y="0" type="line"/>
      <point x="506" y="517" type="line"/>
      <point x="480" y="517" type="line"/>
      <point x="252" y="282" type="line"/>
      <point x="114" y="517" type="line"/>
      <point x="91" y="517" type="line"/>
      <point x="238" y="267" type="line"/>
    </contour>
    <contour>
      <point x="257" y="-198" type="curve" smooth="yes"/>
      <point x="343" y="-198"/>
      <point x="408" y="-136"/>
      <point x="408" y="-55" type="curve" smooth="yes"/>
      <point x="408" y="9"/>
      <point x="368" y="96"/>
      <point x="258" y="268" type="curve"/>
      <point x="242" y="258" type="line"/>
      <point x="348" y="89"/>
      <point x="388" y="3"/>
      <point x="388" y="-55" type="curve" smooth="yes"/>
      <point x="388" y="-125"/>
      <point x="332" y="-178"/>
      <point x="257" y="-178" type="curve" smooth="yes"/>
      <point x="225" y="-178"/>
      <point x="194" y="-168"/>
      <point x="171" y="-150" type="curve"/>
      <point x="159" y="-166" type="line"/>
      <point x="185" y="-187"/>
      <point x="220" y="-198"/>
    </contour>
  </outline>
</glyph>
<glyph name="EnLeftHook-cy" format="2">
  <advance width="820"/>
  <unicode hex="0528"/>
  <outline>
    <contour>
      <point x="-149" y="-159" type="line"/>
      <point x="-82" y="-228"/>
      <point x="68" y="-203"/>
      <point x="92" y="-81" type="curve" smooth="yes"/>
      <point x="177" y="344" type="line"/>
      <point x="680" y="344" type="line"/>
      <point x="611" y="0" type="line"/>
      <point x="631" y="0" type="line"/>
      <point x="771" y="700" type="line"/>
      <point x="751" y="700" type="line"/>
      <point x="684" y="364" type="line"/>
      <point x="181" y="364" type="line"/>
      <point x="248" y="700" type="line"/>
      <point x="228" y="700" type="line"/>
      <point x="74" y="-74" type="line" smooth="yes"/>
      <point x="52" y="-182"/>
      <point x="-69" y="-205"/>
      <point x="-134" y="-146" type="curve"/>
    </contour>
  </outline>
</glyph>
<glyph name="Germandbls" format="2">
  <advance width="742"/>
  <unicode hex="1E9E"/>
  <anchor x="339" y="0" name="bottom"/>
  <anchor x="479" y="700" name="top"/>
  <outline>
    <contour>
      <point x="420" y="-3" type="curve" smooth="yes"/>
      <point x="566" y="-3"/>
      <point x="664" y="83"/>
      <point x="664" y="224" type="curve" smooth="yes"/>
      <point x="664" y="328"/>
      <point x="592" y="387"/>
      <point x="476" y="387" type="curve" smooth="yes"/>
      <point x="451" y="387"/>
      <point x="423" y="385"/>
      <point x="397" y="377" type="curve"/>
      <point x="399" y="366" type="line"/>
      <point x="681" y="610" type="line"/>
      <point x="684" y="626" type="line"/>
      <point x="641" y="676"/>
      <point x="572" y="703"/>
      <point x="476" y="703" type="curve" smooth="yes"/>
      <point x="300" y="703"/>
      <point x="196" y="606"/>
      <point x="162" y="436" type="curve" smooth="yes"/>
      <point x="75" y="0" type="line"/>
      <point x="95" y="0" type="line"/>
      <point x="180" y="429" type="line" smooth="yes"/>
      <point x="213" y="595"/>
      <point x="311" y="684"/>
      <point x="475" y="684" type="curve" smooth="yes"/>
      <point x="563" y="684"/>
      <point x="630" y="661"/>
      <point x="668" y="615" type="curve"/>
      <point x="671" y="625" type="line"/>
      <point x="379" y="373" type="line"/>
      <point x="382" y="357" type="line"/>
      <point x="409" y="365"/>
      <point x="444" y="369"/>
      <point x="474" y="369" type="curve" smooth="yes"/>
      <point x="581" y="369"/>
      <point x="645" y="319"/>
      <point x="645" y="224" type="curve" smooth="yes"/>
      <point x="645" y="94"/>
      <point x="555" y="16"/>
      <point x="423" y="16" type="curve" smooth="yes"/>
      <point x="370" y="16"/>
      <point x="324" y="26"/>
      <point x="284" y="47" type="curve"/>
      <point x="274" y="27" type="line"/>
      <point x="314" y="7"/>
      <point x="367" y="-3"/>
    </contour>
  </outline>
</glyph>
<glyph name="figuredash" format="2">
  <advance width="700"/>
  <unicode hex="2012"/>
  <outline>
    <contour>
      <point x="67" y="346" type="line"/>
      <point x="667" y="346" type="line"/>
      <point x="671" y="365" type="line"/>
      <point x="71" y="365" type="line"/>
    </contour>
  </outline>
</glyph>
<glyph name="quotesinglbase" format="2">
  <advance width="182"/>
  <unicode hex="201A"/>
  <outline>
    <contour>
      <point x="-18" y="-140" type="line"/>
      <point x="0" y="-140" type="line"/>
      <point x="61" y="-6" type="line" smooth="yes"/>
      <point x="66" y="5"/>
      <point x="70" y="12"/>
      <point x="70" y="23" type="curve" smooth="yes"/>
      <point x="70" y="37"/>
      <point x="58" y="49"/>
      <point x="44" y="49" type="curve" smooth="yes"/>
      <point x="30" y="49"/>
      <point x="18" y="37"/>
      <point x="18" y="23" type="curve" smooth="yes"/>
      <point x="18" y="9"/>
      <point x="30" y="-3"/>
      <point x="44" y="-3" type="curve"/>
      <point x="43" y="8" type="line"/>
    </contour>
  </outline>
</glyph>
<glyph name="guilsinglright" format="2">
  <advance width="273"/>
  <unicode hex="203A"/>
  <outline>
    <contour>
      <point x="105" y="444" type="line"/>
      <point x="83" y="444" type="line"/>
      <point x="197" y="252" type="line"/>
      <point x="196" y="264" type="line"/>
      <point x="7" y="74" type="line"/>
      <point x="31" y="74" type="line"/>
      <point x="215" y="259" type="line"/>
    </contour>
  </outline>
</glyph>
<glyph name="fraction" format="2">
  <advance width="160"/>
  <unicode hex="2044"/>
  <outline>
    <contour>
      <point x="-222" y="0" type="line"/>
      <point x="-197" y="0" type="line"/>
      <point x="418" y="700" type="line"/>
      <point x="393" y="700" type="line"/>
    </contour>
  </outline>
</glyph>
<glyph name="infinity" format="2">
  <advance width="914"/>
  <unicode hex="221E"/>
  <outline>
    <contour>
      <point x="676" y="174" type="curve" smooth="yes"/>
      <point x="796" y="174"/>
      <point x="881" y="260"/>
      <point x="881" y="377" type="curve" smooth="yes"/>
      <point x="881" y="466"/>
      <point x="813" y="526"/>
      <point x="718" y="526" type="curve" smooth="yes"/>
      <point x="461" y="526"/>
      <point x="478" y="193"/>
      <point x="234" y="193" type="curve" smooth="yes"/>
      <point x="148" y="193"/>
      <point x="91" y="246"/>
      <point x="91" y="326" type="curve" smooth="yes"/>
      <point x="91" y="434"/>
      <point x="170" y="507"/>
      <point x="276" y="507" type="curve" smooth="yes"/>
      <point x="524" y="507"/>
      <point x="411" y="174"/>
    </contour>
    <contour>
      <point x="234" y="174" type="curve" smooth="yes"/>
      <point x="491" y="174"/>
      <point x="474" y="507"/>
      <point x="718" y="507" type="curve" smooth="yes"/>
      <point x="804" y="507"/>
      <point x="861" y="454"/>
      <point x="861" y="375" type="curve" smooth="yes"/>
      <point x="861" y="267"/>
      <point x="781" y="193"/>
      <point x="676" y="193" type="curve" smooth="yes"/>
      <point x="428" y="193"/>
      <point x="541" y="526"/>
      <point x="276" y="526" type="curve" smooth="yes"/>
      <point x="156" y="526"/>
      <point x="70" y="440"/>
      <point x="70" y="324" type="curve" smooth="yes"/>
      <point x="70" y="235"/>
      <point x="139" y="174"/>
    </contour>
  </outline>
</glyph>
<glyph name="Saltillo" format="2">
  <advance width="208"/>
  <unicode hex="A78B"/>
  <outline>
    <contour>
      <point x="102" y="298" type="line"/>
      <point x="122" y="298" type="line"/>
      <point x="202" y="699" type="line"/>
      <point x="182" y="699" type="line"/>
    </contour>
  </outline>
</glyph>
<glyph name="Aogonek.loclNAV" format="2">
  <advance width="688"/>
  <anchor x="432" y="700" name="top"/>
  <anchor x="194" y="700" name="topleft"/>
  <outline>
    <contour>
      <point x="-43" y="0" type="line"/>
      <point x="-19" y="0" type="line"/>
      <point x="435" y="684" type="line"/>
      <point x="426" y="684" type="line"/>
      <point x="606" y="0" type="line"/>
      <point x="627" y="0" type="line"/>
      <point x="442" y="700" type="line"/>
      <point x="422" y="700" type="line"/>
    </contour>
    <contour>
      <point x="278" y="-213" type="curve" smooth="yes"/>
      <point x="307" y="-213"/>
      <point x="335" y="-204"/>
      <point x="358" y="-186" type="curve"/>
      <point x="350" y="-169" type="line"/>
      <point x="330" y="-185"/>
      <point x="304" y="-194"/>
      <point x="279" y="-194" type="curve" smooth="yes"/>
      <point x="243" y="-194"/>
      <point x="222" y="-176"/>
      <point x="222" y="-142" type="curve" smooth="yes"/>
      <point x="222" y="-93"/>
      <point x="268" y="-50"/>
      <point x="360" y="-7" type="curve"/>
      <point x="353" y="9" type="line"/>
      <point x="246" y="-39"/>
      <point x="202" y="-88"/>
      <point x="202" y="-144" type="curve" smooth="yes"/>
      <point x="202" y="-187"/>
      <point x="232" y="-213"/>
    </contour>
    <contour>
      <point x="106" y="211" type="line"/>
      <point x="561" y="211" type="line"/>
      <point x="555" y="230" type="line"/>
      <point x="120" y="230" type="line"/>
    </contour>
  </outline>
</glyph>
<glyph name="Aogonek.loclNAV.ss01" format="2">
  <advance width="804"/>
  <anchor x="625" y="0" name="ogonek"/>
  <anchor x="490" y="700" name="top"/>
  <anchor x="179" y="700" name="topleft"/>
  <outline>
    <contour>
      <point x="76" y="0" type="line"/>
      <point x="96" y="0" type="line"/>
      <point x="177" y="406" type="line" smooth="yes"/>
      <point x="214" y="594"/>
      <point x="311" y="684"/>
      <point x="477" y="684" type="curve" smooth="yes"/>
      <point x="644" y="684"/>
      <point x="722" y="585"/>
      <point x="686" y="405" type="curve" smooth="yes"/>
      <point x="605" y="0" type="line"/>
      <point x="625" y="0" type="line"/>
      <point x="706" y="407" type="line" smooth="yes"/>
      <point x="743" y="593"/>
      <point x="657" y="703"/>
      <point x="477" y="703" type="curve" smooth="yes"/>
      <point x="302" y="703"/>
      <point x="197" y="608"/>
      <point x="157" y="408" type="curve" smooth="yes"/>
    </contour>
    <contour>
      <point x="136" y="231" type="line"/>
      <point x="662" y="231" type="line"/>
      <point x="666" y="250" type="line"/>
      <point x="140" y="250" type="line"/>
    </contour>
    <contour>
      <point x="326" y="-213" type="curve" smooth="yes"/>
      <point x="355" y="-213"/>
      <point x="383" y="-204"/>
      <point x="406" y="-186" type="curve"/>
      <point x="398" y="-169" type="line"/>
      <point x="378" y="-185"/>
      <point x="352" y="-194"/>
      <point x="327" y="-194" type="curve" smooth="yes"/>
      <point x="291" y="-194"/>
      <point x="270" y="-176"/>
      <point x="270" y="-142" type="curve" smooth="yes"/>
      <point x="270" y="-93"/>
      <point x="316" y="-50"/>
      <point x="408" y="-7" type="curve"/>
      <point x="401" y="9" type="line"/>
      <point x="294" y="-39"/>
      <point x="250" y="-88"/>
      <point x="250" y="-144" type="curve" smooth="yes"/>
      <point x="250" y="-187"/>
      <point x="280" y="-213"/>
    </contour>
  </outline>
</glyph>
<glyph name="Ef-cy.loclBGR" format="2">
  <advance width="898"/>
  <outline>
    <contour>
      <point x="418" y="-3" type="curve" smooth="yes"/>
      <point x="686" y="-3"/>
      <point x="850" y="194"/>
      <point x="850" y="416" type="curve" smooth="yes"/>
      <point x="850" y="588"/>
      <point x="732" y="703"/>
      <point x="517" y="703" type="curve" smooth="yes"/>
      <point x="248" y="703"/>
      <point x="85" y="506"/>
      <point x="85" y="284" type="curve" smooth="yes"/>
      <point x="85" y="112"/>
      <point x="202" y="-3"/>
    </contour>
    <contour>
      <point x="420" y="16" type="curve" smooth="yes"/>
      <point x="212" y="16"/>
      <point x="105" y="124"/>
      <point x="105" y="283" type="curve" smooth="yes"/>
      <point x="105" y="501"/>
      <point x="266" y="684"/>
      <point x="515" y="684" type="curve" smooth="yes"/>
      <point x="723" y="684"/>
      <point x="830" y="576"/>
      <point x="830" y="417" type="curve" smooth="yes"/>
      <point x="830" y="199"/>
      <point x="669" y="16"/>
    </contour>
    <contour>
      <point x="375" y="-40" type="line"/>
      <point x="395" y="-40" type="line"/>
      <point x="551" y="740" type="line"/>
      <point x="531" y="740" type="line"/>
    </contour>
  </outline>
</glyph>
<glyph name="Eogonek.loclNAV.ss01" format="2">
  <advance width="614"/>
  <anchor x="422" y="700" name="top"/>
  <anchor x="154" y="700" name="topleft"/>
  <outline>
    <contour>
      <point x="328" y="13" type="line"/>
      <point x="216" y="-22"/>
      <point x="160" y="-85"/>
      <point x="160" y="-144" type="curve" smooth="yes"/>
      <point x="160" y="-187"/>
      <point x="190" y="-213"/>
      <point x="236" y="-213" type="curve" smooth="yes"/>
      <point x="265" y="-213"/>
      <point x="293" y="-204"/>
      <point x="316" y="-186" type="curve"/>
      <point x="308" y="-169" type="line"/>
      <point x="288" y="-185"/>
      <point x="262" y="-194"/>
      <point x="237" y="-194" type="curve" smooth="yes"/>
      <point x="201" y="-194"/>
      <point x="180" y="-173"/>
      <point x="180" y="-142" type="curve" smooth="yes"/>
      <point x="180" y="-82"/>
      <point x="256" y="-15"/>
      <point x="373" y="5" type="curve" smooth="yes"/>
      <point x="431" y="15"/>
      <point x="507" y="40"/>
      <point x="555" y="91" type="curve"/>
      <point x="541" y="106" type="line"/>
      <point x="488" y="50"/>
      <point x="391" y="16"/>
      <point x="282" y="16" type="curve" smooth="yes"/>
      <point x="143" y="16"/>
      <point x="66" y="68"/>
      <point x="66" y="161" type="curve" smooth="yes"/>
      <point x="66" y="274"/>
      <point x="164" y="346"/>
      <point x="321" y="346" type="curve" smooth="yes"/>
      <point x="484" y="346" type="line"/>
      <point x="488" y="365" type="line"/>
      <point x="324" y="365" type="line" smooth="yes"/>
      <point x="222" y="365"/>
      <point x="163" y="414"/>
      <point x="163" y="496" type="curve" smooth="yes"/>
      <point x="163" y="609"/>
      <point x="264" y="684"/>
      <point x="413" y="684" type="curve" smooth="yes"/>
      <point x="494" y="684"/>
      <point x="559" y="666"/>
      <point x="617" y="627" type="curve"/>
      <point x="629" y="644" type="line"/>
      <point x="573" y="683"/>
      <point x="498" y="703"/>
      <point x="414" y="703" type="curve" smooth="yes"/>
      <point x="253" y="703"/>
      <point x="144" y="621"/>
      <point x="144" y="494" type="curve" smooth="yes"/>
      <point x="144" y="405"/>
      <point x="209" y="349"/>
      <point x="314" y="349" type="curve"/>
      <point x="312" y="362" type="line"/>
      <point x="151" y="362"/>
      <point x="46" y="283"/>
      <point x="46" y="159" type="curve" smooth="yes"/>
      <point x="46" y="57"/>
      <point x="132" y="-3"/>
      <point x="279" y="-3" type="curve" smooth="yes"/>
      <point x="289" y="-3"/>
      <point x="299" y="-3"/>
      <point x="309" y="-2" type="curve"/>
    </contour>
  </outline>
</glyph>
<glyph name="Eogonek.ss01" format="2">
  <advance width="614"/>
  <outline>
    <contour>
      <point x="409" y="-213" type="curve" smooth="yes"/>
      <point x="439" y="-213"/>
      <point x="467" y="-204"/>
      <point x="490" y="-186" type="curve"/>
      <point x="482" y="-169" type="line"/>
      <point x="462" y="-185"/>
      <point x="436" y="-194"/>
      <point x="411" y="-194" type="curve" smooth="yes"/>
      <point x="375" y="-194"/>
      <point x="354" y="-173"/>
      <point x="354" y="-140" type="curve" smooth="yes"/>
      <point x="354" y="-66"/>
      <point x="430" y="-4"/>
      <point x="555" y="91" type="curve"/>
      <point x="541" y="106" type="line"/>
      <point x="484" y="53"/>
      <point x="391" y="16"/>
      <point x="282" y="16" type="curve" smooth="yes"/>
      <point x="143" y="16"/>
      <point x="66" y="68"/>
      <point x="66" y="161" type="curve" smooth="yes"/>
      <point x="66" y="274"/>
      <point x="164" y="346"/>
      <point x="321" y="346" type="curve" smooth="yes"/>
      <point x="484" y="346" type="line"/>
      <point x="488" y="365" type="line"/>
      <point x="324" y="365" type="line" smooth="yes"/>
      <point x="222" y="365"/>
      <point x="163" y="414"/>
      <point x="163" y="496" type="curve" smooth="yes"/>
      <point x="163" y="609"/>
      <point x="264" y="684"/>
      <point x="413" y="684" type="curve" smooth="yes"/>
      <point x="494" y="684"/>
      <point x="559" y="666"/>
      <point x="617" y="627" type="curve"/>
      <point x="629" y="644" type="line"/>
      <point x="573" y="683"/>
      <point x="498" y="703"/>
      <point x="414" y="703" type="curve" smooth="yes"/>
      <point x="253" y="703"/>
      <point x="144" y="621"/>
      <point x="144" y="494" type="curve" smooth="yes"/>
      <point x="144" y="405"/>
      <point x="209" y="349"/>
      <point x="314" y="349" type="curve"/>
      <point x="312" y="362" type="line"/>
      <point x="151" y="362"/>
      <point x="46" y="283"/>
      <point x="46" y="159" type="curve" smooth="yes"/>
      <point x="46" y="57"/>
      <point x="132" y="-3"/>
      <point x="279" y="-3" type="curve" smooth="yes"/>
      <point x="340" y="-3"/>
      <point x="402" y="7"/>
      <point x="452" y="26" type="curve"/>
      <point x="461" y="40" type="line"/>
      <point x="372" y="-32"/>
      <point x="334" y="-82"/>
      <point x="334" y="-142" type="curve" smooth="yes"/>
      <point x="334" y="-184"/>
      <point x="364" y="-213"/>
    </contour>
  </outline>
</glyph>
<glyph name="Udieresis.ss01.alt" format="2">
  <advance width="800"/>
  <outline>
    <contour>
      <point x="348" y="-3" type="curve" smooth="yes"/>
      <point x="474" y="-3"/>
      <point x="576" y="53"/>
      <point x="634" y="174" type="curve"/>
      <point x="630" y="176" type="line"/>
      <point x="595" y="0" type="line"/>
      <point x="615" y="0" type="line"/>
      <point x="755" y="700" type="line"/>
      <point x="735" y="700" type="line"/>
      <point x="650" y="277" type="line" smooth="yes"/>
      <point x="614" y="99"/>
      <point x="501" y="16"/>
      <point x="350" y="16" type="curve" smooth="yes"/>
      <point x="191" y="16"/>
      <point x="117" y="108"/>
      <point x="153" y="290" type="curve" smooth="yes"/>
      <point x="235" y="700" type="line"/>
      <point x="215" y="700" type="line"/>
      <point x="133" y="289" type="line" smooth="yes"/>
      <point x="95" y="97"/>
      <point x="182" y="-3"/>
    </contour>
    <contour>
      <point x="397" y="651" type="curve" smooth="yes"/>
      <point x="412" y="651"/>
      <point x="424" y="664"/>
      <point x="424" y="679" type="curve" smooth="yes"/>
      <point x="424" y="692"/>
      <point x="412" y="703"/>
      <point x="399" y="703" type="curve" smooth="yes"/>
      <point x="384" y="703"/>
      <point x="372" y="690"/>
      <point x="372" y="675" type="curve" smooth="yes"/>
      <point x="372" y="662"/>
      <point x="384" y="651"/>
    </contour>
    <contour>
      <point x="561" y="651" type="curve" smooth="yes"/>
      <point x="576" y="651"/>
      <point x="588" y="664"/>
      <point x="588" y="679" type="curve" smooth="yes"/>
      <point x="588" y="692"/>
      <point x="576" y="703"/>
      <point x="563" y="703" type="curve" smooth="yes"/>
      <point x="548" y="703"/>
      <point x="536" y="690"/>
      <point x="536" y="675" type="curve" smooth="yes"/>
      <point x="536" y="662"/>
      <point x="548" y="651"/>
    </contour>
  </outline>
</glyph>
<glyph name="ampersand.sc" format="2">
  <advance width="515"/>
  <outline>
    <contour>
      <point x="169" y="-3" type="curve" smooth="yes"/>
      <point x="298" y="-3"/>
      <point x="400" y="71"/>
      <point x="462" y="230" type="curve"/>
      <point x="445" y="234" type="line"/>
      <point x="386" y="85"/>
      <point x="291" y="14"/>
      <point x="171" y="14" type="curve" smooth="yes"/>
      <point x="86" y="14"/>
      <point x="36" y="57"/>
      <point x="36" y="119" type="curve" smooth="yes"/>
      <point x="36" y="184"/>
      <point x="76" y="229"/>
      <point x="219" y="300" type="curve" smooth="yes"/>
      <point x="354" y="367"/>
      <point x="399" y="405"/>
      <point x="399" y="473" type="curve" smooth="yes"/>
      <point x="399" y="526"/>
      <point x="357" y="562"/>
      <point x="291" y="562" type="curve" smooth="yes"/>
      <point x="207" y="562"/>
      <point x="152" y="512"/>
      <point x="152" y="434" type="curve" smooth="yes"/>
      <point x="152" y="396"/>
      <point x="169" y="360"/>
      <point x="200" y="318" type="curve" smooth="yes"/>
      <point x="441" y="-8" type="line"/>
      <point x="456" y="4" type="line"/>
      <point x="217" y="327" type="line" smooth="yes"/>
      <point x="186" y="368"/>
      <point x="172" y="403"/>
      <point x="172" y="436" type="curve" smooth="yes"/>
      <point x="172" y="501"/>
      <point x="219" y="544"/>
      <point x="291" y="544" type="curve" smooth="yes"/>
      <point x="349" y="544"/>
      <point x="380" y="512"/>
      <point x="380" y="472" type="curve" smooth="yes"/>
      <point x="380" y="411"/>
      <point x="339" y="379"/>
      <point x="210" y="315" type="curve" smooth="yes"/>
      <point x="63" y="242"/>
      <point x="16" y="189"/>
      <point x="16" y="118" type="curve" smooth="yes"/>
      <point x="16" y="45"/>
      <point x="75" y="-3"/>
    </contour>
  </outline>
</glyph>
<glyph name="aogonek.loclNAV" format="2">
  <advance width="671"/>
  <anchor x="368" y="517" name="top"/>
  <outline>
    <contour>
      <point x="237" y="-213" type="curve" smooth="yes"/>
      <point x="267" y="-213"/>
      <point x="295" y="-204"/>
      <point x="318" y="-186" type="curve"/>
      <point x="310" y="-169" type="line"/>
      <point x="290" y="-185"/>
      <point x="264" y="-194"/>
      <point x="239" y="-194" type="curve" smooth="yes"/>
      <point x="203" y="-194"/>
      <point x="182" y="-176"/>
      <point x="182" y="-142" type="curve" smooth="yes"/>
      <point x="182" y="-86"/>
      <point x="239" y="-33"/>
      <point x="369" y="14" type="curve" smooth="yes"/>
      <point x="483" y="56"/>
      <point x="558" y="169"/>
      <point x="558" y="310" type="curve" smooth="yes"/>
      <point x="558" y="439"/>
      <point x="481" y="520"/>
      <point x="340" y="520" type="curve" smooth="yes"/>
      <point x="171" y="520"/>
      <point x="49" y="386"/>
      <point x="49" y="207" type="curve" smooth="yes"/>
      <point x="49" y="78"/>
      <point x="134" y="-3"/>
      <point x="268" y="-3" type="curve" smooth="yes"/>
      <point x="277" y="-3"/>
      <point x="286" y="-3"/>
      <point x="301" y="-1" type="curve"/>
      <point x="304" y="5" type="line"/>
      <point x="203" y="-38"/>
      <point x="162" y="-91"/>
      <point x="162" y="-144" type="curve" smooth="yes"/>
      <point x="162" y="-187"/>
      <point x="192" y="-213"/>
    </contour>
    <contour>
      <point x="271" y="16" type="curve" smooth="yes"/>
      <point x="144" y="16"/>
      <point x="69" y="86"/>
      <point x="69" y="208" type="curve" smooth="yes"/>
      <point x="69" y="376"/>
      <point x="183" y="501"/>
      <point x="337" y="501" type="curve" smooth="yes"/>
      <point x="466" y="501"/>
      <point x="541" y="431"/>
      <point x="541" y="309" type="curve" smooth="yes"/>
      <point x="541" y="139"/>
      <point x="427" y="16"/>
    </contour>
    <contour>
      <point x="485" y="0" type="line"/>
      <point x="505" y="0" type="line"/>
      <point x="608" y="517" type="line"/>
      <point x="588" y="517" type="line"/>
      <point x="550" y="327" type="line"/>
      <point x="547" y="250" type="line"/>
      <point x="521" y="180" type="line"/>
    </contour>
  </outline>
</glyph>
<glyph name="aogonek.loclNAV.sc.ss01" format="2">
  <advance width="680"/>
  <anchor x="400" y="559" name="top"/>
  <anchor x="148" y="559" name="topleft"/>
  <outline>
    <contour>
      <point x="64" y="0" type="line"/>
      <point x="84" y="0" type="line"/>
      <point x="148" y="324" type="line" smooth="yes"/>
      <point x="177" y="472"/>
      <point x="257" y="543"/>
      <point x="389" y="543" type="curve" smooth="yes"/>
      <point x="524" y="543"/>
      <point x="586" y="465"/>
      <point x="557" y="323" type="curve" smooth="yes"/>
      <point x="492" y="0" type="line"/>
      <point x="512" y="0" type="line"/>
      <point x="577" y="324" type="line" smooth="yes"/>
      <point x="607" y="474"/>
      <point x="537" y="562"/>
      <point x="390" y="562" type="curve" smooth="yes"/>
      <point x="247" y="562"/>
      <point x="161" y="486"/>
      <point x="129" y="326" type="curve" smooth="yes"/>
    </contour>
    <contour>
      <point x="258" y="-213" type="curve" smooth="yes"/>
      <point x="287" y="-213"/>
      <point x="315" y="-204"/>
      <point x="338" y="-186" type="curve"/>
      <point x="330" y="-169" type="line"/>
      <point x="310" y="-185"/>
      <point x="284" y="-194"/>
      <point x="259" y="-194" type="curve" smooth="yes"/>
      <point x="223" y="-194"/>
      <point x="202" y="-176"/>
      <point x="202" y="-142" type="curve" smooth="yes"/>
      <point x="202" y="-93"/>
      <point x="248" y="-50"/>
      <point x="340" y="-7" type="curve"/>
      <point x="333" y="9" type="line"/>
      <point x="226" y="-39"/>
      <point x="182" y="-88"/>
      <point x="182" y="-144" type="curve" smooth="yes"/>
      <point x="182" y="-187"/>
      <point x="212" y="-213"/>
    </contour>
    <contour>
      <point x="115" y="182" type="line"/>
      <point x="538" y="182" type="line"/>
      <point x="542" y="201" type="line"/>
      <point x="118" y="201" type="line"/>
    </contour>
  </outline>
</glyph>
<glyph name="be-cy.loclSRB" format="2">
  <advance width="616"/>
  <outline>
    <contour>
      <point x="255" y="-3" type="curve" smooth="yes"/>
      <point x="420" y="-3"/>
      <point x="560" y="135"/>
      <point x="560" y="300" type="curve" smooth="yes"/>
      <point x="560" y="383"/>
      <point x="524" y="437"/>
      <point x="453" y="476" type="curve" smooth="yes"/>
      <point x="336" y="540"/>
      <point x="221" y="601"/>
      <point x="221" y="666" type="curve" smooth="yes"/>
      <point x="221" y="701"/>
      <point x="253" y="722"/>
      <point x="304" y="722" type="curve" smooth="yes"/>
      <point x="608" y="722" type="line"/>
      <point x="612" y="742" type="line"/>
      <point x="304" y="742" type="line" smooth="yes"/>
      <point x="245" y="742"/>
      <point x="201" y="710"/>
      <point x="201" y="666" type="curve" smooth="yes"/>
      <point x="201" y="612"/>
      <point x="265" y="554"/>
      <point x="401" y="486" type="curve"/>
      <point x="401" y="490" type="line"/>
      <point x="228" y="527"/>
      <point x="51" y="380"/>
      <point x="51" y="198" type="curve" smooth="yes"/>
      <point x="51" y="75"/>
      <point x="131" y="-3"/>
    </contour>
    <contour>
      <point x="254" y="17" type="curve" smooth="yes"/>
      <point x="141" y="17"/>
      <point x="71" y="87"/>
      <point x="71" y="198" type="curve" smooth="yes"/>
      <point x="71" y="350"/>
      <point x="201" y="478"/>
      <point x="354" y="478" type="curve" smooth="yes"/>
      <point x="468" y="478"/>
      <point x="540" y="407"/>
      <point x="540" y="297" type="curve" smooth="yes"/>
      <point x="540" y="150"/>
      <point x="411" y="17"/>
    </contour>
  </outline>
</glyph>
<glyph name="cedi.BRACKET.170" format="2">
  <advance width="711"/>
  <guideline x="1298" y="620" angle="90"/>
  <outline>
    <contour>
      <point x="386" y="-3" type="curve" smooth="yes"/>
      <point x="491" y="-3"/>
      <point x="586" y="32"/>
      <point x="644" y="86" type="curve"/>
      <point x="632" y="102" type="line"/>
      <point x="573" y="47"/>
      <point x="491" y="16"/>
      <point x="388" y="16" type="curve" smooth="yes"/>
      <point x="192" y="16"/>
      <point x="91" y="123"/>
      <point x="91" y="280" type="curve" smooth="yes"/>
      <point x="91" y="499"/>
      <point x="246" y="684"/>
      <point x="490" y="684" type="curve" smooth="yes"/>
      <point x="591" y="684"/>
      <point x="665" y="656"/>
      <point x="713" y="602" type="curve"/>
      <point x="727" y="615" type="line"/>
      <point x="680" y="671"/>
      <point x="597" y="703"/>
      <point x="492" y="703" type="curve" smooth="yes"/>
      <point x="229" y="703"/>
      <point x="71" y="504"/>
      <point x="71" y="280" type="curve" smooth="yes"/>
      <point x="71" y="111"/>
      <point x="182" y="-3"/>
    </contour>
    <contour>
      <point x="307" y="-120" type="line"/>
      <point x="326" y="-120" type="line"/>
      <point x="352" y="9" type="line"/>
      <point x="333" y="9" type="line"/>
    </contour>
    <contour>
      <point x="470" y="695" type="line"/>
      <point x="489" y="695" type="line"/>
      <point x="514" y="820" type="line"/>
      <point x="495" y="820" type="line"/>
    </contour>
  </outline>
</glyph>
<glyph name="cent.BRACKET.170" format="2">
  <advance width="545"/>
  <outline>
    <contour>
      <point x="274" y="-3" type="curve" smooth="yes"/>
      <point x="354" y="-3"/>
      <point x="429" y="27"/>
      <point x="472" y="80" type="curve"/>
      <point x="460" y="94" type="line"/>
      <point x="419" y="45"/>
      <point x="351" y="16"/>
      <point x="277" y="16" type="curve" smooth="yes"/>
      <point x="144" y="16"/>
      <point x="69" y="86"/>
      <point x="69" y="208" type="curve" smooth="yes"/>
      <point x="69" y="376"/>
      <point x="183" y="501"/>
      <point x="341" y="501" type="curve" smooth="yes"/>
      <point x="420" y="501"/>
      <point x="477" y="475"/>
      <point x="512" y="421" type="curve"/>
      <point x="527" y="433" type="line"/>
      <point x="493" y="490"/>
      <point x="428" y="520"/>
      <point x="342" y="520" type="curve" smooth="yes"/>
      <point x="172" y="520"/>
      <point x="49" y="388"/>
      <point x="49" y="207" type="curve" smooth="yes"/>
      <point x="49" y="78"/>
      <point x="134" y="-3"/>
    </contour>
    <contour>
      <point x="217" y="-120" type="line"/>
      <point x="236" y="-120" type="line"/>
      <point x="262" y="9" type="line"/>
      <point x="243" y="9" type="line"/>
    </contour>
    <contour>
      <point x="343" y="512" type="line"/>
      <point x="362" y="512" type="line"/>
      <point x="387" y="637" type="line"/>
      <point x="368" y="637" type="line"/>
    </contour>
  </outline>
</glyph>
<glyph name="dotaccentcomb.loclVIET" format="2">
  <anchor x="351" y="517" name="_top"/>
  <anchor x="374" y="630" name="top"/>
  <outline>
    <contour>
      <point x="380" y="641" type="curve" smooth="yes"/>
      <point x="395" y="641"/>
      <point x="407" y="654"/>
      <point x="407" y="669" type="curve" smooth="yes"/>
      <point x="407" y="682"/>
      <point x="395" y="693"/>
      <point x="382" y="693" type="curve" smooth="yes"/>
      <point x="367" y="693"/>
      <point x="355" y="680"/>
      <point x="355" y="665" type="curve" smooth="yes"/>
      <point x="355" y="652"/>
      <point x="367" y="641"/>
    </contour>
  </outline>
</glyph>
<glyph name="eogonek.loclNAV" format="2">
  <advance width="589"/>
  <anchor x="339" y="517" name="top"/>
  <outline>
    <contour>
      <point x="238" y="-213" type="curve" smooth="yes"/>
      <point x="268" y="-213"/>
      <point x="296" y="-204"/>
      <point x="319" y="-186" type="curve"/>
      <point x="311" y="-169" type="line"/>
      <point x="291" y="-185"/>
      <point x="265" y="-194"/>
      <point x="240" y="-194" type="curve" smooth="yes"/>
      <point x="204" y="-194"/>
      <point x="183" y="-176"/>
      <point x="183" y="-142" type="curve" smooth="yes"/>
      <point x="183" y="-86"/>
      <point x="244" y="-30"/>
      <point x="371" y="13" type="curve" smooth="yes"/>
      <point x="414" y="28"/>
      <point x="450" y="49"/>
      <point x="479" y="80" type="curve"/>
      <point x="467" y="93" type="line"/>
      <point x="425" y="45"/>
      <point x="357" y="16"/>
      <point x="279" y="16" type="curve" smooth="yes"/>
      <point x="143" y="16"/>
      <point x="69" y="85"/>
      <point x="69" y="210" type="curve" smooth="yes"/>
      <point x="69" y="377"/>
      <point x="179" y="501"/>
      <point x="326" y="501" type="curve" smooth="yes"/>
      <point x="453" y="501"/>
      <point x="538" y="418"/>
      <point x="515" y="267" type="curve"/>
      <point x="523" y="278" type="line"/>
      <point x="70" y="278" type="line"/>
      <point x="66" y="259" type="line"/>
      <point x="532" y="259" type="line"/>
      <point x="535" y="274"/>
      <point x="537" y="292"/>
      <point x="537" y="310" type="curve" smooth="yes"/>
      <point x="537" y="441"/>
      <point x="457" y="520"/>
      <point x="326" y="520" type="curve" smooth="yes"/>
      <point x="167" y="520"/>
      <point x="50" y="386"/>
      <point x="50" y="210" type="curve" smooth="yes"/>
      <point x="50" y="74"/>
      <point x="135" y="-3"/>
      <point x="278" y="-3" type="curve" smooth="yes"/>
      <point x="287" y="-3"/>
      <point x="287" y="-3"/>
      <point x="302" y="-1" type="curve"/>
      <point x="305" y="5" type="line"/>
      <point x="204" y="-38"/>
      <point x="163" y="-91"/>
      <point x="163" y="-144" type="curve" smooth="yes"/>
      <point x="163" y="-187"/>
      <point x="193" y="-213"/>
    </contour>
  </outline>
</glyph>
<glyph name="eogonek.loclNAV.sc.ss01" format="2">
  <advance width="519"/>
  <anchor x="337" y="559" name="top"/>
  <anchor x="118" y="559" name="topleft"/>
  <outline>
    <contour>
      <point x="186" y="-213" type="curve" smooth="yes"/>
      <point x="215" y="-213"/>
      <point x="243" y="-204"/>
      <point x="266" y="-186" type="curve"/>
      <point x="258" y="-169" type="line"/>
      <point x="238" y="-185"/>
      <point x="212" y="-194"/>
      <point x="187" y="-194" type="curve" smooth="yes"/>
      <point x="151" y="-194"/>
      <point x="130" y="-176"/>
      <point x="130" y="-142" type="curve" smooth="yes"/>
      <point x="130" y="-88"/>
      <point x="188" y="-25"/>
      <point x="303" y="4" type="curve" smooth="yes"/>
      <point x="363" y="19"/>
      <point x="404" y="32"/>
      <point x="445" y="72" type="curve"/>
      <point x="433" y="87" type="line"/>
      <point x="390" y="43"/>
      <point x="312" y="16"/>
      <point x="225" y="16" type="curve" smooth="yes"/>
      <point x="113" y="16"/>
      <point x="51" y="57"/>
      <point x="51" y="130" type="curve" smooth="yes"/>
      <point x="51" y="218"/>
      <point x="129" y="275"/>
      <point x="254" y="275" type="curve" smooth="yes"/>
      <point x="388" y="275" type="line"/>
      <point x="392" y="293" type="line"/>
      <point x="258" y="293" type="line" smooth="yes"/>
      <point x="177" y="293"/>
      <point x="129" y="332"/>
      <point x="129" y="396" type="curve" smooth="yes"/>
      <point x="129" y="484"/>
      <point x="210" y="543"/>
      <point x="330" y="543" type="curve" smooth="yes"/>
      <point x="395" y="543"/>
      <point x="447" y="529"/>
      <point x="495" y="498" type="curve"/>
      <point x="505" y="515" type="line"/>
      <point x="460" y="546"/>
      <point x="399" y="562"/>
      <point x="331" y="562" type="curve" smooth="yes"/>
      <point x="199" y="562"/>
      <point x="110" y="496"/>
      <point x="110" y="394" type="curve" smooth="yes"/>
      <point x="110" y="323"/>
      <point x="163" y="279"/>
      <point x="248" y="279" type="curve"/>
      <point x="246" y="290" type="line"/>
      <point x="116" y="290"/>
      <point x="31" y="227"/>
      <point x="31" y="128" type="curve" smooth="yes"/>
      <point x="31" y="46"/>
      <point x="101" y="-3"/>
      <point x="221" y="-3" type="curve" smooth="yes"/>
      <point x="229" y="-3"/>
      <point x="238" y="-3"/>
      <point x="246" y="-2" type="curve"/>
      <point x="275" y="15" type="line"/>
      <point x="160" y="-25"/>
      <point x="110" y="-85"/>
      <point x="110" y="-144" type="curve" smooth="yes"/>
      <point x="110" y="-187"/>
      <point x="140" y="-213"/>
    </contour>
  </outline>
</glyph>
<glyph name="f.sc.ss01" format="2">
  <advance width="503"/>
  <outline>
    <contour>
      <point x="64" y="0" type="line"/>
      <point x="84" y="0" type="line"/>
      <point x="160" y="381" type="line" smooth="yes"/>
      <point x="181" y="485"/>
      <point x="250" y="543"/>
      <point x="376" y="543" type="curve" smooth="yes"/>
      <point x="436" y="543"/>
      <point x="485" y="529"/>
      <point x="522" y="499" type="curve"/>
      <point x="534" y="514" type="line"/>
      <point x="496" y="547"/>
      <point x="440" y="562"/>
      <point x="377" y="562" type="curve" smooth="yes"/>
      <point x="239" y="562"/>
      <point x="164" y="498"/>
      <point x="141" y="383" type="curve" smooth="yes"/>
    </contour>
    <contour>
      <point x="132" y="258" type="line"/>
      <point x="428" y="258" type="line"/>
      <point x="432" y="277" type="line"/>
      <point x="135" y="277" type="line"/>
    </contour>
  </outline>
</glyph>
<glyph name="g.sc" format="2">
  <advance width="647"/>
  <anchor x="282" y="0" name="bottom"/>
  <anchor x="395" y="559" name="top"/>
  <outline>
    <contour>
      <point x="311" y="-3" type="curve" smooth="yes"/>
      <point x="389" y="-3"/>
      <point x="459" y="26"/>
      <point x="508" y="69" type="curve"/>
      <point x="498" y="85" type="line"/>
      <point x="448" y="42"/>
      <point x="389" y="16"/>
      <point x="313" y="16" type="curve" smooth="yes"/>
      <point x="156" y="16"/>
      <point x="75" y="101"/>
      <point x="75" y="224" type="curve" smooth="yes"/>
      <point x="75" y="397"/>
      <point x="199" y="543"/>
      <point x="394" y="543" type="curve" smooth="yes"/>
      <point x="477" y="543"/>
      <point x="539" y="521"/>
      <point x="577" y="477" type="curve"/>
      <point x="592" y="490" type="line"/>
      <point x="553" y="535"/>
      <point x="483" y="562"/>
      <point x="396" y="562" type="curve" smooth="yes"/>
      <point x="183" y="562"/>
      <point x="55" y="404"/>
      <point x="55" y="224" type="curve" smooth="yes"/>
      <point x="55" y="89"/>
      <point x="145" y="-3"/>
    </contour>
    <contour>
      <point x="489" y="70" type="line"/>
      <point x="508" y="69" type="line"/>
      <point x="549" y="275" type="line"/>
      <point x="530" y="275" type="line"/>
    </contour>
  </outline>
</glyph>
<glyph name="gravecomb.loclVIET" format="2">
  <anchor x="351" y="517" name="_top"/>
  <anchor x="374" y="630" name="top"/>
  <outline>
    <contour>
      <point x="384" y="607" type="line"/>
      <point x="414" y="607" type="line"/>
      <point x="307" y="707" type="line"/>
      <point x="267" y="707" type="line"/>
    </contour>
  </outline>
</glyph>
<glyph name="hookabovecomb.loclVIET" format="2">
  <anchor x="351" y="517" name="_top"/>
  <anchor x="380" y="660" name="top"/>
  <outline>
    <contour>
      <point x="378" y="603" type="line"/>
      <point x="419" y="620"/>
      <point x="440" y="647"/>
      <point x="440" y="680" type="curve" smooth="yes"/>
      <point x="440" y="710"/>
      <point x="419" y="729"/>
      <point x="385" y="729" type="curve" smooth="yes"/>
      <point x="366" y="729"/>
      <point x="348" y="724"/>
      <point x="332" y="714" type="curve"/>
      <point x="338" y="697" type="line"/>
      <point x="353" y="706"/>
      <point x="368" y="710"/>
      <point x="383" y="710" type="curve" smooth="yes"/>
      <point x="407" y="710"/>
      <point x="421" y="697"/>
      <point x="421" y="678" type="curve" smooth="yes"/>
      <point x="421" y="652"/>
      <point x="402" y="632"/>
      <point x="369" y="618" type="curve"/>
    </contour>
  </outline>
</glyph>
<glyph name="ij.sc.ss01" format="2">
  <advance width="612"/>
  <anchor x="214" y="559" name="top"/>
  <outline>
    <contour>
      <point x="226" y="-82" type="curve" smooth="yes"/>
      <point x="362" y="-82"/>
      <point x="442" y="-6"/>
      <point x="474" y="152" type="curve" smooth="yes"/>
      <point x="556" y="559" type="line"/>
      <point x="536" y="559" type="line"/>
      <point x="455" y="156" type="line" smooth="yes"/>
      <point x="425" y="6"/>
      <point x="351" y="-63"/>
      <point x="226" y="-63" type="curve" smooth="yes"/>
      <point x="162" y="-63"/>
      <point x="108" y="-44"/>
      <point x="68" y="-14" type="curve"/>
      <point x="56" y="-31" type="line"/>
      <point x="96" y="-61"/>
      <point x="154" y="-82"/>
    </contour>
    <contour>
      <point x="99" y="153" type="line"/>
      <point x="119" y="153" type="line"/>
      <point x="200" y="559" type="line"/>
      <point x="180" y="559" type="line"/>
    </contour>
  </outline>
</glyph>
<glyph name="k.sc" format="2">
  <advance width="586"/>
  <anchor x="264" y="0" name="bottom"/>
  <anchor x="376" y="559" name="top"/>
  <outline>
    <contour>
      <point x="116" y="146" type="line"/>
      <point x="291" y="292" type="line"/>
      <point x="301" y="300" type="line"/>
      <point x="608" y="559" type="line"/>
      <point x="580" y="559" type="line"/>
      <point x="122" y="175" type="line"/>
    </contour>
    <contour>
      <point x="70" y="0" type="line"/>
      <point x="90" y="0" type="line"/>
      <point x="202" y="559" type="line"/>
      <point x="182" y="559" type="line"/>
    </contour>
    <contour>
      <point x="490" y="0" type="line"/>
      <point x="514" y="0" type="line"/>
      <point x="297" y="310" type="line"/>
      <point x="280" y="299" type="line"/>
    </contour>
  </outline>
</glyph>
<glyph name="l.ss01" format="2">
  <advance width="283"/>
  <anchor x="135" y="0" name="bottom"/>
  <anchor x="143" y="350" name="center"/>
  <anchor x="269" y="350" name="dot"/>
  <anchor x="221" y="742" name="top"/>
  <anchor x="329" y="742" name="topright"/>
  <outline>
    <contour>
      <point x="182" y="-3" type="curve" smooth="yes"/>
      <point x="199" y="-3"/>
      <point x="222" y="1"/>
      <point x="236" y="7" type="curve"/>
      <point x="237" y="26" type="line"/>
      <point x="224" y="20"/>
      <point x="205" y="16"/>
      <point x="183" y="16" type="curve" smooth="yes"/>
      <point x="118" y="16"/>
      <point x="94" y="58"/>
      <point x="109" y="132" type="curve" smooth="yes"/>
      <point x="231" y="742" type="line"/>
      <point x="211" y="742" type="line"/>
      <point x="88" y="126" type="line" smooth="yes"/>
      <point x="72" y="48"/>
      <point x="106" y="-3"/>
    </contour>
  </outline>
</glyph>
<glyph name="m.sc" format="2">
  <advance width="805"/>
  <anchor x="351" y="0" name="bottom"/>
  <anchor x="463" y="559" name="top"/>
  <outline>
    <contour>
      <point x="70" y="0" type="line"/>
      <point x="90" y="0" type="line"/>
      <point x="196" y="529" type="line"/>
      <point x="189" y="530" type="line"/>
      <point x="366" y="78" type="line"/>
      <point x="377" y="78" type="line"/>
      <point x="725" y="528" type="line"/>
      <point x="717" y="529" type="line"/>
      <point x="611" y="0" type="line"/>
      <point x="631" y="0" type="line"/>
      <point x="743" y="559" type="line"/>
      <point x="725" y="559" type="line"/>
      <point x="370" y="100" type="line"/>
      <point x="379" y="97" type="line"/>
      <point x="199" y="559" type="line"/>
      <point x="182" y="559" type="line"/>
    </contour>
  </outline>
</glyph>
<glyph name="naira.BRACKET.120" format="2">
  <advance width="850"/>
  <outline>
    <contour>
      <point x="98" y="0" type="line"/>
      <point x="118" y="0" type="line"/>
      <point x="253" y="675" type="line"/>
      <point x="245" y="677" type="line"/>
      <point x="631" y="0" type="line"/>
      <point x="648" y="0" type="line"/>
      <point x="788" y="700" type="line"/>
      <point x="768" y="700" type="line"/>
      <point x="633" y="25" type="line"/>
      <point x="641" y="23" type="line"/>
      <point x="255" y="700" type="line"/>
      <point x="238" y="700" type="line"/>
    </contour>
    <contour>
      <point x="32" y="272" type="line"/>
      <point x="161" y="272" type="line"/>
      <point x="165" y="290" type="line"/>
      <point x="36" y="290" type="line"/>
    </contour>
    <contour>
      <point x="60" y="410" type="line"/>
      <point x="188" y="410" type="line"/>
      <point x="191" y="428" type="line"/>
      <point x="64" y="428" type="line"/>
    </contour>
    <contour>
      <point x="691" y="272" type="line"/>
      <point x="822" y="272" type="line"/>
      <point x="826" y="290" type="line"/>
      <point x="694" y="290" type="line"/>
    </contour>
    <contour>
      <point x="719" y="410" type="line"/>
      <point x="850" y="410" type="line"/>
      <point x="854" y="428" type="line"/>
      <point x="722" y="428" type="line"/>
    </contour>
  </outline>
</glyph>
<glyph name="o.sc" format="2">
  <advance width="694"/>
  <anchor x="295" y="0" name="bottom"/>
  <anchor x="351" y="280" name="center"/>
  <anchor x="338" y="0" name="ogonek"/>
  <anchor x="407" y="559" name="top"/>
  <anchor x="116" y="559" name="topleft"/>
  <anchor x="607" y="559" name="topright"/>
  <outline>
    <contour>
      <point x="310" y="-3" type="curve" smooth="yes"/>
      <point x="519" y="-3"/>
      <point x="647" y="156"/>
      <point x="647" y="335" type="curve" smooth="yes"/>
      <point x="647" y="471"/>
      <point x="557" y="562"/>
      <point x="392" y="562" type="curve" smooth="yes"/>
      <point x="183" y="562"/>
      <point x="55" y="404"/>
      <point x="55" y="224" type="curve" smooth="yes"/>
      <point x="55" y="89"/>
      <point x="145" y="-3"/>
    </contour>
    <contour>
      <point x="312" y="16" type="curve" smooth="yes"/>
      <point x="156" y="16"/>
      <point x="75" y="101"/>
      <point x="75" y="224" type="curve" smooth="yes"/>
      <point x="75" y="397"/>
      <point x="197" y="543"/>
      <point x="390" y="543" type="curve" smooth="yes"/>
      <point x="547" y="543"/>
      <point x="627" y="458"/>
      <point x="627" y="335" type="curve" smooth="yes"/>
      <point x="627" y="162"/>
      <point x="504" y="16"/>
    </contour>
  </outline>
</glyph>
<glyph name="seven.dnom" format="2">
  <advance width="430"/>
  <outline>
    <contour>
      <point x="103" y="0" type="line"/>
      <point x="127" y="0" type="line"/>
      <point x="419" y="401" type="line"/>
      <point x="422" y="415" type="line"/>
      <point x="76" y="415" type="line"/>
      <point x="56" y="315" type="line"/>
      <point x="74" y="315" type="line"/>
      <point x="92" y="406" type="line"/>
      <point x="82" y="397" type="line"/>
      <point x="407" y="397" type="line"/>
      <point x="398" y="405" type="line"/>
    </contour>
  </outline>
</glyph>
<glyph name="t.sc" format="2">
  <advance width="448"/>
  <anchor x="172" y="0" name="bottom"/>
  <anchor x="229" y="283" name="center"/>
  <anchor x="284" y="559" name="top"/>
  <outline>
    <contour>
      <point x="162" y="0" type="line"/>
      <point x="182" y="0" type="line"/>
      <point x="290" y="540" type="line"/>
      <point x="500" y="540" type="line"/>
      <point x="504" y="559" type="line"/>
      <point x="64" y="559" type="line"/>
      <point x="60" y="540" type="line"/>
      <point x="270" y="540" type="line"/>
    </contour>
  </outline>
</glyph>
<glyph name="three.dnom" format="2">
  <advance width="430"/>
  <outline>
    <contour>
      <point x="157" y="-2" type="curve" smooth="yes"/>
      <point x="265" y="-2"/>
      <point x="334" y="46"/>
      <point x="334" y="129" type="curve" smooth="yes"/>
      <point x="334" y="192"/>
      <point x="286" y="231"/>
      <point x="198" y="231" type="curve" smooth="yes"/>
      <point x="180" y="231" type="line"/>
      <point x="186" y="226" type="line"/>
      <point x="372" y="401" type="line"/>
      <point x="375" y="415" type="line"/>
      <point x="76" y="415" type="line"/>
      <point x="72" y="397" type="line"/>
      <point x="353" y="397" type="line"/>
      <point x="350" y="404" type="line"/>
      <point x="164" y="229" type="line"/>
      <point x="161" y="214" type="line"/>
      <point x="198" y="214" type="line" smooth="yes"/>
      <point x="276" y="214"/>
      <point x="315" y="182"/>
      <point x="315" y="129" type="curve" smooth="yes"/>
      <point x="315" y="55"/>
      <point x="255" y="16"/>
      <point x="158" y="16" type="curve" smooth="yes"/>
      <point x="88" y="16"/>
      <point x="39" y="39"/>
      <point x="13" y="69" type="curve"/>
      <point x="-1" y="56" type="line"/>
      <point x="25" y="23"/>
      <point x="84" y="-2"/>
    </contour>
  </outline>
</glyph>
<glyph name="udieresis.sc.ss01.alt" format="2">
  <advance width="678"/>
  <outline>
    <contour>
      <point x="284" y="-3" type="curve" smooth="yes"/>
      <point x="386" y="-3"/>
      <point x="468" y="42"/>
      <point x="515" y="138" type="curve"/>
      <point x="511" y="140" type="line"/>
      <point x="483" y="0" type="line"/>
      <point x="503" y="0" type="line"/>
      <point x="616" y="559" type="line"/>
      <point x="596" y="559" type="line"/>
      <point x="527" y="222" type="line" smooth="yes"/>
      <point x="498" y="82"/>
      <point x="408" y="17"/>
      <point x="288" y="17" type="curve" smooth="yes"/>
      <point x="162" y="17"/>
      <point x="104" y="89"/>
      <point x="132" y="232" type="curve" smooth="yes"/>
      <point x="197" y="559" type="line"/>
      <point x="177" y="559" type="line"/>
      <point x="111" y="231" type="line" smooth="yes"/>
      <point x="80" y="78"/>
      <point x="151" y="-3"/>
    </contour>
    <contour>
      <point x="308" y="510" type="curve" smooth="yes"/>
      <point x="323" y="510"/>
      <point x="335" y="523"/>
      <point x="335" y="538" type="curve" smooth="yes"/>
      <point x="335" y="551"/>
      <point x="323" y="562"/>
      <point x="310" y="562" type="curve" smooth="yes"/>
      <point x="295" y="562"/>
      <point x="283" y="549"/>
      <point x="283" y="534" type="curve" smooth="yes"/>
      <point x="283" y="521"/>
      <point x="295" y="510"/>
    </contour>
    <contour>
      <point x="472" y="510" type="curve" smooth="yes"/>
      <point x="487" y="510"/>
      <point x="499" y="523"/>
      <point x="499" y="538" type="curve" smooth="yes"/>
      <point x="499" y="551"/>
      <point x="487" y="562"/>
      <point x="474" y="562" type="curve" smooth="yes"/>
      <point x="459" y="562"/>
      <point x="447" y="549"/>
      <point x="447" y="534" type="curve" smooth="yes"/>
      <point x="447" y="521"/>
      <point x="459" y="510"/>
    </contour>
  </outline>
</glyph>
<glyph name="uogonek.loclNAV.ss01" format="2">
  <advance width="696"/>
  <anchor x="278" y="0" name="bottom"/>
  <anchor x="651" y="7" name="ogonek"/>
  <anchor x="381" y="517" name="top"/>
  <anchor x="591" y="517" name="topright"/>
  <outline>
    <contour>
      <point x="264" y="-213" type="curve" smooth="yes"/>
      <point x="293" y="-213"/>
      <point x="321" y="-204"/>
      <point x="344" y="-186" type="curve"/>
      <point x="336" y="-169" type="line"/>
      <point x="316" y="-185"/>
      <point x="290" y="-194"/>
      <point x="265" y="-194" type="curve" smooth="yes"/>
      <point x="229" y="-194"/>
      <point x="208" y="-176"/>
      <point x="208" y="-142" type="curve" smooth="yes"/>
      <point x="208" y="-88"/>
      <point x="256" y="-37"/>
      <point x="361" y="8" type="curve" smooth="yes"/>
      <point x="430" y="37"/>
      <point x="478" y="65"/>
      <point x="518" y="155" type="curve"/>
      <point x="505" y="132" type="line"/>
      <point x="485" y="51"/>
      <point x="519" y="-3"/>
      <point x="597" y="-3" type="curve" smooth="yes"/>
      <point x="614" y="-3"/>
      <point x="637" y="1"/>
      <point x="651" y="7" type="curve"/>
      <point x="652" y="26" type="line"/>
      <point x="639" y="20"/>
      <point x="620" y="16"/>
      <point x="598" y="16" type="curve" smooth="yes"/>
      <point x="533" y="16"/>
      <point x="509" y="58"/>
      <point x="524" y="132" type="curve" smooth="yes"/>
      <point x="601" y="517" type="line"/>
      <point x="581" y="517" type="line"/>
      <point x="524" y="230" type="line" smooth="yes"/>
      <point x="496" y="90"/>
      <point x="405" y="16"/>
      <point x="275" y="16" type="curve" smooth="yes"/>
      <point x="148" y="16"/>
      <point x="96" y="91"/>
      <point x="120" y="212" type="curve" smooth="yes"/>
      <point x="181" y="517" type="line"/>
      <point x="161" y="517" type="line"/>
      <point x="100" y="212" type="line" smooth="yes"/>
      <point x="75" y="86"/>
      <point x="131" y="-3"/>
      <point x="273" y="-3" type="curve" smooth="yes"/>
      <point x="286" y="-3"/>
      <point x="299" y="-2"/>
      <point x="312" y="-1" type="curve"/>
      <point x="356" y="21" type="line"/>
      <point x="237" y="-22"/>
      <point x="188" y="-85"/>
      <point x="188" y="-144" type="curve" smooth="yes"/>
      <point x="188" y="-187"/>
      <point x="218" y="-213"/>
    </contour>
  </outline>
</glyph>
<glyph name="w.ss01" format="2">
  <advance width="1021"/>
  <anchor x="460" y="0" name="bottom"/>
  <anchor x="562" y="517" name="top"/>
  <outline>
    <contour>
      <point x="255" y="-3" type="curve" smooth="yes"/>
      <point x="358" y="-3"/>
      <point x="446" y="46"/>
      <point x="493" y="151" type="curve"/>
      <point x="486" y="153" type="line"/>
      <point x="487" y="59"/>
      <point x="542" y="-3"/>
      <point x="656" y="-3" type="curve" smooth="yes"/>
      <point x="787" y="-3"/>
      <point x="887" y="77"/>
      <point x="917" y="226" type="curve" smooth="yes"/>
      <point x="974" y="517" type="line"/>
      <point x="954" y="517" type="line"/>
      <point x="898" y="230" type="line" smooth="yes"/>
      <point x="870" y="91"/>
      <point x="780" y="16"/>
      <point x="658" y="16" type="curve" smooth="yes"/>
      <point x="535" y="16"/>
      <point x="488" y="91"/>
      <point x="512" y="212" type="curve" smooth="yes"/>
      <point x="572" y="517" type="line"/>
      <point x="552" y="517" type="line"/>
      <point x="492" y="213" type="line" smooth="yes"/>
      <point x="466" y="84"/>
      <point x="372" y="16"/>
      <point x="256" y="16" type="curve" smooth="yes"/>
      <point x="136" y="16"/>
      <point x="86" y="91"/>
      <point x="110" y="212" type="curve" smooth="yes"/>
      <point x="170" y="517" type="line"/>
      <point x="150" y="517" type="line"/>
      <point x="90" y="212" type="line" smooth="yes"/>
      <point x="65" y="86"/>
      <point x="119" y="-3"/>
    </contour>
  </outline>
</glyph>
<glyph name="zero.tf" format="2">
  <advance width="700"/>
  <outline>
    <contour>
      <point x="302" y="-3" type="curve" smooth="yes"/>
      <point x="520" y="-3"/>
      <point x="648" y="228"/>
      <point x="648" y="457" type="curve" smooth="yes"/>
      <point x="648" y="611"/>
      <point x="569" y="703"/>
      <point x="434" y="703" type="curve" smooth="yes"/>
      <point x="216" y="703"/>
      <point x="88" y="472"/>
      <point x="88" y="243" type="curve" smooth="yes"/>
      <point x="88" y="89"/>
      <point x="167" y="-3"/>
    </contour>
    <contour>
      <point x="305" y="16" type="curve" smooth="yes"/>
      <point x="177" y="16"/>
      <point x="106" y="99"/>
      <point x="106" y="242" type="curve" smooth="yes"/>
      <point x="106" y="455"/>
      <point x="224" y="684"/>
      <point x="431" y="684" type="curve" smooth="yes"/>
      <point x="559" y="684"/>
      <point x="630" y="601"/>
      <point x="630" y="458" type="curve" smooth="yes"/>
      <point x="630" y="245"/>
      <point x="512" y="16"/>
    </contour>
  </outline>
</glyph>
